<?xml version="1.0" standalone="no"?>
  <!DOCTYPE svg PUBLIC "-//W3C//DTD SVG 1.1//EN" "http://www.w3.org/Graphics/SVG/1.1/DTD/svg11.dtd" >
  <svg>
  <metadata>
  Created by font-carrier
  </metadata>
  <defs>
  <font id="CascadiaCode-Roman" horiz-adv-x="1200" vert-adv-y="1200" >
    <font-face
      
      font-family="Cascadia Code"
      
      font-weight="400"
      
      font-stretch="normal"
      
      units-per-em="2048"
      
      ascent="1900"
      
      descent="-480"
      
    />
      <missing-glyph />

      

      
      <glyph glyph-name="uni41" unicode="&#x41;" d="M45 0L455 1420L745 1420L1155 0L945 0L609 1248L591 1248L255 0L45 0M235 346L235 536L955 536L955 346L235 346Z"  horiz-adv-x="1200" vert-adv-y="2048"  />

      
      <glyph glyph-name="unic1" unicode="&#xc1;" d="M45 0L455 1420L745 1420L1155 0L945 0L609 1248L591 1248L255 0L45 0M235 346L235 536L955 536L955 346L235 346M469 1580L689 1830L971 1830L701 1580L469 1580Z"  horiz-adv-x="1200" vert-adv-y="2048"  />

      
      <glyph glyph-name="uni0102" unicode="&#x0102;" d="M45 0L455 1420L745 1420L1155 0L945 0L609 1248L591 1248L255 0L45 0M235 346L235 536L955 536L955 346L235 346M600 1570Q422 1570 324 1646Q226 1722 226 1860L401 1860Q401 1787 453.50 1746.50Q506 1706 600 1706Q695 1706 747 1746.50Q799 1787 799 1860L974 1860Q974 1722 876 1646Q778 1570 600 1570Z"  horiz-adv-x="1200" vert-adv-y="2048"  />

      
      <glyph glyph-name="uni1EAE" unicode="&#x1EAE;" d="M45 0L455 1420L745 1420L1155 0L945 0L609 1248L591 1248L255 0L45 0M235 346L235 536L955 536L955 346L235 346M600 1570Q422 1570 324 1646Q226 1722 226 1860L401 1860Q401 1787 453.50 1746.50Q506 1706 600 1706Q695 1706 747 1746.50Q799 1787 799 1860L974 1860Q974 1722 876 1646Q778 1570 600 1570M469 1980L689 2230L971 2230L701 1980L469 1980Z"  horiz-adv-x="1200" vert-adv-y="2048"  />

      
      <glyph glyph-name="uni1EB6" unicode="&#x1EB6;" d="M45 0L455 1420L745 1420L1155 0L945 0L609 1248L591 1248L255 0L45 0M235 346L235 536L955 536L955 346L235 346M600-420Q545-420 505.50-380.50Q466-341 466-286Q466-230 505.50-191Q545-152 600-152Q656-152 695-191Q734-230 734-286Q734-341 695-380.50Q656-420 600-420M600 1570Q422 1570 324 1646Q226 1722 226 1860L401 1860Q401 1787 453.50 1746.50Q506 1706 600 1706Q695 1706 747 1746.50Q799 1787 799 1860L974 1860Q974 1722 876 1646Q778 1570 600 1570Z"  horiz-adv-x="1200" vert-adv-y="2048"  />

      
      <glyph glyph-name="uni1EB0" unicode="&#x1EB0;" d="M45 0L455 1420L745 1420L1155 0L945 0L609 1248L591 1248L255 0L45 0M235 346L235 536L955 536L955 346L235 346M600 1570Q422 1570 324 1646Q226 1722 226 1860L401 1860Q401 1787 453.50 1746.50Q506 1706 600 1706Q695 1706 747 1746.50Q799 1787 799 1860L974 1860Q974 1722 876 1646Q778 1570 600 1570M509 1980L239 2230L521 2230L741 1980L509 1980Z"  horiz-adv-x="1200" vert-adv-y="2048"  />

      
      <glyph glyph-name="uni1EB2" unicode="&#x1EB2;" d="M45 0L455 1420L745 1420L1155 0L945 0L609 1248L591 1248L255 0L45 0M235 346L235 536L955 536L955 346L235 346M600 1570Q422 1570 324 1646Q226 1722 226 1860L401 1860Q401 1787 453.50 1746.50Q506 1706 600 1706Q695 1706 747 1746.50Q799 1787 799 1860L974 1860Q974 1722 876 1646Q778 1570 600 1570M532 1929L532 1950Q532 1968 547 1985.50Q562 2003 598 2028Q637 2053 653 2069.50Q669 2086 669 2102Q669 2153 587 2153Q491 2153 423 2110L356 2229Q437 2304 608 2304Q835 2304 835 2141Q835 2081 808 2041.50Q781 2002 716 1964Q700 1955 693.50 1947Q687 1939 687 1929L532 1929Z"  horiz-adv-x="1200" vert-adv-y="2048"  />

      
      <glyph glyph-name="uni1EB4" unicode="&#x1EB4;" d="M45 0L455 1420L745 1420L1155 0L945 0L609 1248L591 1248L255 0L45 0M235 346L235 536L955 536L955 346L235 346M600 1570Q422 1570 324 1646Q226 1722 226 1860L401 1860Q401 1787 453.50 1746.50Q506 1706 600 1706Q695 1706 747 1746.50Q799 1787 799 1860L974 1860Q974 1722 876 1646Q778 1570 600 1570M225 1966L225 2016Q225 2141 277.50 2203.50Q330 2266 435 2266Q476 2266 520.50 2253.50Q565 2241 623 2217Q682 2193 713 2179.50Q744 2166 769 2166Q823 2166 823 2230L823 2290L995 2290L995 2240Q995 2120 948 2060Q901 2000 807 2000Q773 2000 726 2014Q679 2028 614 2055Q571 2073 535 2086.50Q499 2100 473 2100Q399 2100 399 2026L399 1966L225 1966Z"  horiz-adv-x="1200" vert-adv-y="2048"  />

      
      <glyph glyph-name="uni01CD" unicode="&#x01CD;" d="M45 0L455 1420L745 1420L1155 0L945 0L609 1248L591 1248L255 0L45 0M235 346L235 536L955 536L955 346L235 346M514 1580L254 1840L476 1840L610 1684L590 1684L724 1840L946 1840L686 1580L514 1580Z"  horiz-adv-x="1200" vert-adv-y="2048"  />

      
      <glyph glyph-name="unic2" unicode="&#xc2;" d="M45 0L455 1420L745 1420L1155 0L945 0L609 1248L591 1248L255 0L45 0M235 346L235 536L955 536L955 346L235 346M259 1580L519 1840L691 1840L951 1580L729 1580L552 1785L658 1785L481 1580L259 1580Z"  horiz-adv-x="1200" vert-adv-y="2048"  />

      
      <glyph glyph-name="uni1EA4" unicode="&#x1EA4;" d="M45 0L455 1420L745 1420L1155 0L945 0L609 1248L591 1248L255 0L45 0M235 346L235 536L955 536L955 346L235 346M259 1580L519 1840L691 1840L951 1580L729 1580L552 1785L658 1785L481 1580L259 1580M820 1828L1040 2078L1322 2078L1052 1828L820 1828Z"  horiz-adv-x="1200" vert-adv-y="2048"  />

      
      <glyph glyph-name="uni1EAC" unicode="&#x1EAC;" d="M45 0L455 1420L745 1420L1155 0L945 0L609 1248L591 1248L255 0L45 0M235 346L235 536L955 536L955 346L235 346M600-420Q545-420 505.50-380.50Q466-341 466-286Q466-230 505.50-191Q545-152 600-152Q656-152 695-191Q734-230 734-286Q734-341 695-380.50Q656-420 600-420M259 1580L519 1840L691 1840L951 1580L729 1580L552 1785L658 1785L481 1580L259 1580Z"  horiz-adv-x="1200" vert-adv-y="2048"  />

      
      <glyph glyph-name="uni1EA6" unicode="&#x1EA6;" d="M45 0L455 1420L745 1420L1155 0L945 0L609 1248L591 1248L255 0L45 0M235 346L235 536L955 536L955 346L235 346M259 1580L519 1840L691 1840L951 1580L729 1580L552 1785L658 1785L481 1580L259 1580M860 1828L590 2078L872 2078L1092 1828L860 1828Z"  horiz-adv-x="1200" vert-adv-y="2048"  />

      
      <glyph glyph-name="uni1EA8" unicode="&#x1EA8;" d="M45 0L455 1420L745 1420L1155 0L945 0L609 1248L591 1248L255 0L45 0M235 346L235 536L955 536L955 346L235 346M259 1580L519 1840L691 1840L951 1580L729 1580L552 1785L658 1785L481 1580L259 1580M883 1777L883 1798Q883 1816 898 1833.50Q913 1851 949 1876Q988 1901 1004 1917.50Q1020 1934 1020 1950Q1020 2001 938 2001Q842 2001 774 1958L707 2077Q788 2152 959 2152Q1186 2152 1186 1989Q1186 1929 1159 1889.50Q1132 1850 1067 1812Q1051 1803 1044.50 1795Q1038 1787 1038 1777L883 1777Z"  horiz-adv-x="1200" vert-adv-y="2048"  />

      
      <glyph glyph-name="uni1EAA" unicode="&#x1EAA;" d="M45 0L455 1420L745 1420L1155 0L945 0L609 1248L591 1248L255 0L45 0M235 346L235 536L955 536L955 346L235 346M259 1580L519 1840L691 1840L951 1580L729 1580L552 1785L658 1785L481 1580L259 1580M225 1946L225 1996Q225 2121 277.50 2183.50Q330 2246 435 2246Q476 2246 520.50 2233.50Q565 2221 623 2197Q682 2173 713 2159.50Q744 2146 769 2146Q823 2146 823 2210L823 2270L995 2270L995 2220Q995 2100 948 2040Q901 1980 807 1980Q773 1980 726 1994Q679 2008 614 2035Q571 2053 535 2066.50Q499 2080 473 2080Q399 2080 399 2006L399 1946L225 1946Z"  horiz-adv-x="1200" vert-adv-y="2048"  />

      
      <glyph glyph-name="unic4" unicode="&#xc4;" d="M45 0L455 1420L745 1420L1155 0L945 0L609 1248L591 1248L255 0L45 0M235 346L235 536L955 536L955 346L235 346M808 1580Q753 1580 713.50 1619.50Q674 1659 674 1714Q674 1770 713.50 1809Q753 1848 808 1848Q864 1848 903 1809Q942 1770 942 1714Q942 1659 903 1619.50Q864 1580 808 1580M392 1580Q337 1580 297.50 1619.50Q258 1659 258 1714Q258 1770 297.50 1809Q337 1848 392 1848Q448 1848 487 1809Q526 1770 526 1714Q526 1659 487 1619.50Q448 1580 392 1580Z"  horiz-adv-x="1200" vert-adv-y="2048"  />

      
      <glyph glyph-name="uni1EA0" unicode="&#x1EA0;" d="M45 0L455 1420L745 1420L1155 0L945 0L609 1248L591 1248L255 0L45 0M235 346L235 536L955 536L955 346L235 346M600-420Q545-420 505.50-380.50Q466-341 466-286Q466-230 505.50-191Q545-152 600-152Q656-152 695-191Q734-230 734-286Q734-341 695-380.50Q656-420 600-420Z"  horiz-adv-x="1200" vert-adv-y="2048"  />

      
      <glyph glyph-name="unic0" unicode="&#xc0;" d="M45 0L455 1420L745 1420L1155 0L945 0L609 1248L591 1248L255 0L45 0M235 346L235 536L955 536L955 346L235 346M509 1580L239 1830L521 1830L741 1580L509 1580Z"  horiz-adv-x="1200" vert-adv-y="2048"  />

      
      <glyph glyph-name="uni1EA2" unicode="&#x1EA2;" d="M45 0L455 1420L745 1420L1155 0L945 0L609 1248L591 1248L255 0L45 0M235 346L235 536L955 536L955 346L235 346M532 1529L532 1550Q532 1568 547 1585.50Q562 1603 598 1628Q637 1653 653 1669.50Q669 1686 669 1702Q669 1753 587 1753Q491 1753 423 1710L356 1829Q437 1904 608 1904Q835 1904 835 1741Q835 1681 808 1641.50Q781 1602 716 1564Q700 1555 693.50 1547Q687 1539 687 1529L532 1529Z"  horiz-adv-x="1200" vert-adv-y="2048"  />

      
      <glyph glyph-name="uni2C6D" unicode="&#x2C6D;" d="M530-27Q299-27 183.50 159Q68 345 68 693Q68 1049 189 1244.50Q310 1440 530 1440Q662 1440 716.50 1383Q771 1326 775 1222L856 1222L794 874Q794 1065 736 1160.50Q678 1256 562 1256Q425 1256 351.50 1109Q278 962 278 693Q278 428 350 292.50Q422 157 562 157Q660 157 709.50 197Q759 237 776.50 335.50Q794 434 794 608L873 189L786 189Q773 95 712.50 34Q652-27 530-27M813-13L795 389L794 573L998 573L998 194L1147 169L1147 0L813-13M794 440L794 1420L998 1420L998 440L794 440Z"  horiz-adv-x="1200" vert-adv-y="2048"  />

      
      <glyph glyph-name="uni0100" unicode="&#x0100;" d="M45 0L455 1420L745 1420L1155 0L945 0L609 1248L591 1248L255 0L45 0M235 346L235 536L955 536L955 346L235 346M213 1580L213 1768L987 1768L987 1580L213 1580Z"  horiz-adv-x="1200" vert-adv-y="2048"  />

      
      <glyph glyph-name="uni0104" unicode="&#x0104;" d="M1018-424Q903-424 840.50-368.50Q778-313 778-212Q778-131 822-75.50Q866-20 945 0L962 50L1132 32L1152 0Q1046 0 987-41Q928-82 928-158Q928-256 1044-256Q1061-256 1082.50-254Q1104-252 1126-249L1108-419Q1085-422 1061.50-423Q1038-424 1018-424M45 0L455 1420L745 1420L1155 0L945 0L609 1248L591 1248L255 0L45 0M235 346L235 536L955 536L955 346L235 346Z"  horiz-adv-x="1200" vert-adv-y="2048"  />

      
      <glyph glyph-name="unic5" unicode="&#xc5;" d="M45 0L455 1420L745 1420L1155 0L945 0L609 1248L591 1248L255 0L45 0M235 346L235 536L955 536L955 346L235 346M600 1488Q487 1488 424.50 1542Q362 1596 362 1694Q362 1792 424.50 1846Q487 1900 600 1900Q713 1900 775.50 1846Q838 1792 838 1694Q838 1596 775.50 1542Q713 1488 600 1488M600 1604Q647 1604 671.50 1627.50Q696 1651 696 1694Q696 1738 671.50 1761.50Q647 1785 600 1785Q554 1785 529 1761.50Q504 1738 504 1694Q504 1651 529 1627.50Q554 1604 600 1604Z"  horiz-adv-x="1200" vert-adv-y="2048"  />

      
      <glyph glyph-name="uni01FA" unicode="&#x01FA;" d="M399 1820L619 2070L901 2070L631 1820L399 1820M45 0L455 1420L745 1420L1155 0L945 0L609 1248L591 1248L255 0L45 0M235 346L235 536L955 536L955 346L235 346M600 1488Q487 1488 424.50 1542Q362 1596 362 1694Q362 1792 424.50 1846Q487 1900 600 1900Q713 1900 775.50 1846Q838 1792 838 1694Q838 1596 775.50 1542Q713 1488 600 1488M600 1604Q647 1604 671.50 1627.50Q696 1651 696 1694Q696 1738 671.50 1761.50Q647 1785 600 1785Q554 1785 529 1761.50Q504 1738 504 1694Q504 1651 529 1627.50Q554 1604 600 1604Z"  horiz-adv-x="1200" vert-adv-y="2048"  />

      
      <glyph glyph-name="uni023A" unicode="&#x023A;" d="M513-330L377-306L509 441L519 496L653 1263L661 1307L733 1716L869 1692L770 1131L750 1014L658 492L651 452L513-330M45 0L455 1420L745 1420L1155 0L945 0L609 1248L591 1248L255 0L45 0M235 346L235 536L955 536L955 346L235 346Z"  horiz-adv-x="1200" vert-adv-y="2048"  />

      
      <glyph glyph-name="unic3" unicode="&#xc3;" d="M45 0L455 1420L745 1420L1155 0L945 0L609 1248L591 1248L255 0L45 0M235 346L235 536L955 536L955 346L235 346M225 1566L225 1616Q225 1741 277.50 1803.50Q330 1866 435 1866Q476 1866 520.50 1853.50Q565 1841 623 1817Q682 1793 713 1779.50Q744 1766 769 1766Q823 1766 823 1830L823 1890L995 1890L995 1840Q995 1720 948 1660Q901 1600 807 1600Q773 1600 726 1614Q679 1628 614 1655Q571 1673 535 1686.50Q499 1700 473 1700Q399 1700 399 1626L399 1566L225 1566Z"  horiz-adv-x="1200" vert-adv-y="2048"  />

      
      <glyph glyph-name="unic6" unicode="&#xc6;" d="M42 0L442 1420L717 1420L717 1248L583 1248L232 0L42 0M232 241L232 416L702 416L702 241L232 241M600 0L600 190L1100 190L1100 0L600 0M600 0L600 1420L780 1420L780 0L600 0M600 616L600 806L1040 806L1040 616L600 616M600 1230L600 1420L1100 1420L1100 1230L600 1230Z"  horiz-adv-x="1200" vert-adv-y="2048"  />

      
      <glyph glyph-name="uni01FC" unicode="&#x01FC;" d="M42 0L442 1420L717 1420L717 1248L583 1248L232 0L42 0M232 241L232 416L702 416L702 241L232 241M600 0L600 190L1100 190L1100 0L600 0M600 0L600 1420L780 1420L780 0L600 0M600 616L600 806L1040 806L1040 616L600 616M600 1230L600 1420L1100 1420L1100 1230L600 1230M509 1580L729 1830L1011 1830L741 1580L509 1580Z"  horiz-adv-x="1200" vert-adv-y="2048"  />

      
      <glyph glyph-name="uni42" unicode="&#x42;" d="M346 0L346 190L646 190Q778 190 851 250.50Q924 311 924 420Q924 532 848 593.50Q772 655 632 655L350 655L326 746L682 746Q898 746 1016 653Q1134 560 1134 390Q1134 204 1022 102Q910 0 704 0L346 0M160 0L160 1420L360 1420L360 0L160 0M278 698L278 796L694 796L694 698L278 698M346 754L346 845L586 845Q699 845 761.50 895.50Q824 946 824 1040Q824 1132 758.50 1181Q693 1230 572 1230L350 1230L326 1420L582 1420Q798 1420 916 1326.50Q1034 1233 1034 1060Q1034 913 922 833.50Q810 754 604 754L346 754Z"  horiz-adv-x="1200" vert-adv-y="2048"  />

      
      <glyph glyph-name="uni43" unicode="&#x43;" d="M748-20Q86-20 86 712Q86 1059 253 1249.50Q420 1440 724 1440Q871 1440 980 1393.50Q1089 1347 1139 1261L991 1114Q946 1182 876.50 1219Q807 1256 726 1256Q533 1256 416.50 1117Q300 978 300 722Q300 164 782 164Q927 164 1068 224L1114 48Q940-20 748-20Z"  horiz-adv-x="1200" vert-adv-y="2048"  />

      
      <glyph glyph-name="uni0106" unicode="&#x0106;" d="M748-20Q86-20 86 712Q86 1059 253 1249.50Q420 1440 724 1440Q871 1440 980 1393.50Q1089 1347 1139 1261L991 1114Q946 1182 876.50 1219Q807 1256 726 1256Q533 1256 416.50 1117Q300 978 300 722Q300 164 782 164Q927 164 1068 224L1114 48Q940-20 748-20M564 1580L784 1830L1066 1830L796 1580L564 1580Z"  horiz-adv-x="1200" vert-adv-y="2048"  />

      
      <glyph glyph-name="uni010C" unicode="&#x010C;" d="M748-20Q86-20 86 712Q86 1059 253 1249.50Q420 1440 724 1440Q871 1440 980 1393.50Q1089 1347 1139 1261L991 1114Q946 1182 876.50 1219Q807 1256 726 1256Q533 1256 416.50 1117Q300 978 300 722Q300 164 782 164Q927 164 1068 224L1114 48Q940-20 748-20M609 1580L349 1840L571 1840L705 1684L685 1684L819 1840L1041 1840L781 1580L609 1580Z"  horiz-adv-x="1200" vert-adv-y="2048"  />

      
      <glyph glyph-name="unic7" unicode="&#xc7;" d="M748-20Q86-20 86 712Q86 1059 253 1249.50Q420 1440 724 1440Q871 1440 980 1393.50Q1089 1347 1139 1261L991 1114Q946 1182 876.50 1219Q807 1256 726 1256Q533 1256 416.50 1117Q300 978 300 722Q300 164 782 164Q927 164 1068 224L1114 48Q940-20 748-20M504-480L504-330Q599-330 645.50-312Q692-294 692-258Q692-223 652-206.50Q612-190 530-190L599 6L735-5L710-100Q796-118 839-159.50Q882-201 882-267Q882-373 788-426.50Q694-480 504-480Z"  horiz-adv-x="1200" vert-adv-y="2048"  />

      
      <glyph glyph-name="uni0108" unicode="&#x0108;" d="M748-20Q86-20 86 712Q86 1059 253 1249.50Q420 1440 724 1440Q871 1440 980 1393.50Q1089 1347 1139 1261L991 1114Q946 1182 876.50 1219Q807 1256 726 1256Q533 1256 416.50 1117Q300 978 300 722Q300 164 782 164Q927 164 1068 224L1114 48Q940-20 748-20M354 1580L614 1840L786 1840L1046 1580L824 1580L647 1785L753 1785L576 1580L354 1580Z"  horiz-adv-x="1200" vert-adv-y="2048"  />

      
      <glyph glyph-name="uni010A" unicode="&#x010A;" d="M748-20Q86-20 86 712Q86 1059 253 1249.50Q420 1440 724 1440Q871 1440 980 1393.50Q1089 1347 1139 1261L991 1114Q946 1182 876.50 1219Q807 1256 726 1256Q533 1256 416.50 1117Q300 978 300 722Q300 164 782 164Q927 164 1068 224L1114 48Q940-20 748-20M695 1580Q640 1580 600.50 1619.50Q561 1659 561 1714Q561 1770 600.50 1809Q640 1848 695 1848Q751 1848 790 1809Q829 1770 829 1714Q829 1659 790 1619.50Q751 1580 695 1580Z"  horiz-adv-x="1200" vert-adv-y="2048"  />

      
      <glyph glyph-name="uni023B" unicode="&#x023B;" d="M573-330L437-306L793 1716L929 1692L573-330M748-20Q86-20 86 712Q86 1059 253 1249.50Q420 1440 724 1440Q871 1440 980 1393.50Q1089 1347 1139 1261L991 1114Q946 1182 876.50 1219Q807 1256 726 1256Q533 1256 416.50 1117Q300 978 300 722Q300 164 782 164Q927 164 1068 224L1114 48Q940-20 748-20Z"  horiz-adv-x="1200" vert-adv-y="2048"  />

      
      <glyph glyph-name="uni44" unicode="&#x44;" d="M326 0L326 190L484 190Q703 190 813.50 315Q924 440 924 690Q924 961 813.50 1095.50Q703 1230 484 1230L330 1230L306 1420L484 1420Q1134 1420 1134 690Q1134 0 484 0L326 0M140 0L140 1420L340 1420L340 0L140 0Z"  horiz-adv-x="1200" vert-adv-y="2048"  />

      
      <glyph glyph-name="unid0" unicode="&#xd0;" d="M12 612L12 802L651 802L651 612L12 612M326 0L326 190L484 190Q703 190 813.50 315Q924 440 924 690Q924 961 813.50 1095.50Q703 1230 484 1230L330 1230L306 1420L484 1420Q1134 1420 1134 690Q1134 0 484 0L326 0M140 0L140 1420L340 1420L340 0L140 0Z"  horiz-adv-x="1200" vert-adv-y="2048"  />

      
      <glyph glyph-name="uni010E" unicode="&#x010E;" d="M326 0L326 190L484 190Q703 190 813.50 315Q924 440 924 690Q924 961 813.50 1095.50Q703 1230 484 1230L330 1230L306 1420L484 1420Q1134 1420 1134 690Q1134 0 484 0L326 0M140 0L140 1420L340 1420L340 0L140 0M444 1580L184 1840L406 1840L540 1684L520 1684L654 1840L876 1840L616 1580L444 1580Z"  horiz-adv-x="1200" vert-adv-y="2048"  />

      
      <glyph glyph-name="uni0110" unicode="&#x0110;" d="M12 612L12 802L651 802L651 612L12 612M326 0L326 190L484 190Q703 190 813.50 315Q924 440 924 690Q924 961 813.50 1095.50Q703 1230 484 1230L330 1230L306 1420L484 1420Q1134 1420 1134 690Q1134 0 484 0L326 0M140 0L140 1420L340 1420L340 0L140 0Z"  horiz-adv-x="1200" vert-adv-y="2048"  />

      
      <glyph glyph-name="uni45" unicode="&#x45;" d="M160 0L160 1420L360 1420L360 0L160 0M160 0L160 190L1100 190L1100 0L160 0M160 616L160 806L920 806L920 616L160 616M160 1230L160 1420L1100 1420L1100 1230L160 1230Z"  horiz-adv-x="1200" vert-adv-y="2048"  />

      
      <glyph glyph-name="unic9" unicode="&#xc9;" d="M160 0L160 1420L360 1420L360 0L160 0M160 0L160 190L1100 190L1100 0L160 0M160 616L160 806L920 806L920 616L160 616M160 1230L160 1420L1100 1420L1100 1230L160 1230M499 1580L719 1830L1001 1830L731 1580L499 1580Z"  horiz-adv-x="1200" vert-adv-y="2048"  />

      
      <glyph glyph-name="uni0114" unicode="&#x0114;" d="M160 0L160 1420L360 1420L360 0L160 0M160 0L160 190L1100 190L1100 0L160 0M160 616L160 806L920 806L920 616L160 616M160 1230L160 1420L1100 1420L1100 1230L160 1230M630 1570Q452 1570 354 1646Q256 1722 256 1860L431 1860Q431 1787 483.50 1746.50Q536 1706 630 1706Q725 1706 777 1746.50Q829 1787 829 1860L1004 1860Q1004 1722 906 1646Q808 1570 630 1570Z"  horiz-adv-x="1200" vert-adv-y="2048"  />

      
      <glyph glyph-name="uni011A" unicode="&#x011A;" d="M160 0L160 1420L360 1420L360 0L160 0M160 0L160 190L1100 190L1100 0L160 0M160 616L160 806L920 806L920 616L160 616M160 1230L160 1420L1100 1420L1100 1230L160 1230M544 1580L284 1840L506 1840L640 1684L620 1684L754 1840L976 1840L716 1580L544 1580Z"  horiz-adv-x="1200" vert-adv-y="2048"  />

      
      <glyph glyph-name="unica" unicode="&#xca;" d="M160 0L160 1420L360 1420L360 0L160 0M160 0L160 190L1100 190L1100 0L160 0M160 616L160 806L920 806L920 616L160 616M160 1230L160 1420L1100 1420L1100 1230L160 1230M289 1580L549 1840L721 1840L981 1580L759 1580L582 1785L688 1785L511 1580L289 1580Z"  horiz-adv-x="1200" vert-adv-y="2048"  />

      
      <glyph glyph-name="uni1EBE" unicode="&#x1EBE;" d="M160 0L160 1420L360 1420L360 0L160 0M160 0L160 190L1100 190L1100 0L160 0M160 616L160 806L920 806L920 616L160 616M160 1230L160 1420L1100 1420L1100 1230L160 1230M289 1580L549 1840L721 1840L981 1580L759 1580L582 1785L688 1785L511 1580L289 1580M850 1828L1070 2078L1352 2078L1082 1828L850 1828Z"  horiz-adv-x="1200" vert-adv-y="2048"  />

      
      <glyph glyph-name="uni1EC6" unicode="&#x1EC6;" d="M160 0L160 1420L360 1420L360 0L160 0M160 0L160 190L1100 190L1100 0L160 0M160 616L160 806L920 806L920 616L160 616M160 1230L160 1420L1100 1420L1100 1230L160 1230M630-420Q575-420 535.50-380.50Q496-341 496-286Q496-230 535.50-191Q575-152 630-152Q686-152 725-191Q764-230 764-286Q764-341 725-380.50Q686-420 630-420M289 1580L549 1840L721 1840L981 1580L759 1580L582 1785L688 1785L511 1580L289 1580Z"  horiz-adv-x="1200" vert-adv-y="2048"  />

      
      <glyph glyph-name="uni1EC0" unicode="&#x1EC0;" d="M160 0L160 1420L360 1420L360 0L160 0M160 0L160 190L1100 190L1100 0L160 0M160 616L160 806L920 806L920 616L160 616M160 1230L160 1420L1100 1420L1100 1230L160 1230M289 1580L549 1840L721 1840L981 1580L759 1580L582 1785L688 1785L511 1580L289 1580M890 1828L620 2078L902 2078L1122 1828L890 1828Z"  horiz-adv-x="1200" vert-adv-y="2048"  />

      
      <glyph glyph-name="uni1EC2" unicode="&#x1EC2;" d="M160 0L160 1420L360 1420L360 0L160 0M160 0L160 190L1100 190L1100 0L160 0M160 616L160 806L920 806L920 616L160 616M160 1230L160 1420L1100 1420L1100 1230L160 1230M289 1580L549 1840L721 1840L981 1580L759 1580L582 1785L688 1785L511 1580L289 1580M913 1777L913 1798Q913 1816 928 1833.50Q943 1851 979 1876Q1018 1901 1034 1917.50Q1050 1934 1050 1950Q1050 2001 968 2001Q872 2001 804 1958L737 2077Q818 2152 989 2152Q1216 2152 1216 1989Q1216 1929 1189 1889.50Q1162 1850 1097 1812Q1081 1803 1074.50 1795Q1068 1787 1068 1777L913 1777Z"  horiz-adv-x="1200" vert-adv-y="2048"  />

      
      <glyph glyph-name="uni1EC4" unicode="&#x1EC4;" d="M160 0L160 1420L360 1420L360 0L160 0M160 0L160 190L1100 190L1100 0L160 0M160 616L160 806L920 806L920 616L160 616M160 1230L160 1420L1100 1420L1100 1230L160 1230M289 1580L549 1840L721 1840L981 1580L759 1580L582 1785L688 1785L511 1580L289 1580M255 1946L255 1996Q255 2121 307.50 2183.50Q360 2246 465 2246Q506 2246 550.50 2233.50Q595 2221 653 2197Q712 2173 743 2159.50Q774 2146 799 2146Q853 2146 853 2210L853 2270L1025 2270L1025 2220Q1025 2100 978 2040Q931 1980 837 1980Q803 1980 756 1994Q709 2008 644 2035Q601 2053 565 2066.50Q529 2080 503 2080Q429 2080 429 2006L429 1946L255 1946Z"  horiz-adv-x="1200" vert-adv-y="2048"  />

      
      <glyph glyph-name="unicb" unicode="&#xcb;" d="M160 0L160 1420L360 1420L360 0L160 0M160 0L160 190L1100 190L1100 0L160 0M160 616L160 806L920 806L920 616L160 616M160 1230L160 1420L1100 1420L1100 1230L160 1230M838 1580Q783 1580 743.50 1619.50Q704 1659 704 1714Q704 1770 743.50 1809Q783 1848 838 1848Q894 1848 933 1809Q972 1770 972 1714Q972 1659 933 1619.50Q894 1580 838 1580M422 1580Q367 1580 327.50 1619.50Q288 1659 288 1714Q288 1770 327.50 1809Q367 1848 422 1848Q478 1848 517 1809Q556 1770 556 1714Q556 1659 517 1619.50Q478 1580 422 1580Z"  horiz-adv-x="1200" vert-adv-y="2048"  />

      
      <glyph glyph-name="uni0116" unicode="&#x0116;" d="M160 0L160 1420L360 1420L360 0L160 0M160 0L160 190L1100 190L1100 0L160 0M160 616L160 806L920 806L920 616L160 616M160 1230L160 1420L1100 1420L1100 1230L160 1230M630 1580Q575 1580 535.50 1619.50Q496 1659 496 1714Q496 1770 535.50 1809Q575 1848 630 1848Q686 1848 725 1809Q764 1770 764 1714Q764 1659 725 1619.50Q686 1580 630 1580Z"  horiz-adv-x="1200" vert-adv-y="2048"  />

      
      <glyph glyph-name="uni1EB8" unicode="&#x1EB8;" d="M160 0L160 1420L360 1420L360 0L160 0M160 0L160 190L1100 190L1100 0L160 0M160 616L160 806L920 806L920 616L160 616M160 1230L160 1420L1100 1420L1100 1230L160 1230M630-420Q575-420 535.50-380.50Q496-341 496-286Q496-230 535.50-191Q575-152 630-152Q686-152 725-191Q764-230 764-286Q764-341 725-380.50Q686-420 630-420Z"  horiz-adv-x="1200" vert-adv-y="2048"  />

      
      <glyph glyph-name="unic8" unicode="&#xc8;" d="M160 0L160 1420L360 1420L360 0L160 0M160 0L160 190L1100 190L1100 0L160 0M160 616L160 806L920 806L920 616L160 616M160 1230L160 1420L1100 1420L1100 1230L160 1230M539 1580L269 1830L551 1830L771 1580L539 1580Z"  horiz-adv-x="1200" vert-adv-y="2048"  />

      
      <glyph glyph-name="uni1EBA" unicode="&#x1EBA;" d="M160 0L160 1420L360 1420L360 0L160 0M160 0L160 190L1100 190L1100 0L160 0M160 616L160 806L920 806L920 616L160 616M160 1230L160 1420L1100 1420L1100 1230L160 1230M562 1529L562 1550Q562 1568 577 1585.50Q592 1603 628 1628Q667 1653 683 1669.50Q699 1686 699 1702Q699 1753 617 1753Q521 1753 453 1710L386 1829Q467 1904 638 1904Q865 1904 865 1741Q865 1681 838 1641.50Q811 1602 746 1564Q730 1555 723.50 1547Q717 1539 717 1529L562 1529Z"  horiz-adv-x="1200" vert-adv-y="2048"  />

      
      <glyph glyph-name="uni0112" unicode="&#x0112;" d="M160 0L160 1420L360 1420L360 0L160 0M160 0L160 190L1100 190L1100 0L160 0M160 616L160 806L920 806L920 616L160 616M160 1230L160 1420L1100 1420L1100 1230L160 1230M243 1580L243 1768L1017 1768L1017 1580L243 1580Z"  horiz-adv-x="1200" vert-adv-y="2048"  />

      
      <glyph glyph-name="uni0118" unicode="&#x0118;" d="M966-424Q851-424 788.50-368.50Q726-313 726-212Q726-138 755.50-88Q785-38 840-20L840 30L1080 32L1100 0Q994 0 935-44Q876-88 876-168Q876-210 906.50-233Q937-256 992-256Q1027-256 1074-245L1056-415Q1033-419 1009.50-421.50Q986-424 966-424M160 0L160 1420L360 1420L360 0L160 0M160 0L160 190L1100 190L1100 0L160 0M160 616L160 806L920 806L920 616L160 616M160 1230L160 1420L1100 1420L1100 1230L160 1230Z"  horiz-adv-x="1200" vert-adv-y="2048"  />

      
      <glyph glyph-name="uni0190" unicode="&#x0190;" d="M690 1440Q853 1440 963 1393.50Q1073 1347 1125 1261L977 1114Q933 1184 859 1220Q785 1256 691 1256Q529 1256 458.50 1199Q388 1142 388 1058Q388 952 492 900Q596 848 838 840L816 652L666 652Q518 652 427 590.50Q336 529 336 415Q336 297 424.50 230.50Q513 164 669 164Q751 164 810 169Q869 174 925.50 186.50Q982 199 1054 222L1100 48Q1036 22 976 7Q916-8 844.50-14Q773-20 674-20Q506-20 383.50 31Q261 82 194.50 175.50Q128 269 128 394Q128 511 187 591Q246 671 341.50 712.50Q437 754 546 756L529 702L529 819L546 763Q353 790 268.50 878Q184 966 184 1093Q184 1248 303 1344Q422 1440 690 1440Z"  horiz-adv-x="1200" vert-adv-y="2048"  />

      
      <glyph glyph-name="uni018E" unicode="&#x018E;" d="M1040 0L840 0L840 1420L1040 1420L1040 0M1040 0L100 0L100 190L1040 190L1040 0M1040 616L280 616L280 806L1040 806L1040 616M1040 1230L100 1230L100 1420L1040 1420L1040 1230Z"  horiz-adv-x="1200" vert-adv-y="2048"  />

      
      <glyph glyph-name="uni01A9" unicode="&#x01A9;" d="M296 54L150 176L591 713L150 1230L312 1362L847 713L296 54M150 0L150 176L1070 176L1070 0L150 0M150 1230L150 1420L1050 1420L1050 1230L150 1230Z"  horiz-adv-x="1200" vert-adv-y="2048"  />

      
      <glyph glyph-name="uni1EBC" unicode="&#x1EBC;" d="M160 0L160 1420L360 1420L360 0L160 0M160 0L160 190L1100 190L1100 0L160 0M160 616L160 806L920 806L920 616L160 616M160 1230L160 1420L1100 1420L1100 1230L160 1230M255 1566L255 1616Q255 1741 307.50 1803.50Q360 1866 465 1866Q506 1866 550.50 1853.50Q595 1841 653 1817Q712 1793 743 1779.50Q774 1766 799 1766Q853 1766 853 1830L853 1890L1025 1890L1025 1840Q1025 1720 978 1660Q931 1600 837 1600Q803 1600 756 1614Q709 1628 644 1655Q601 1673 565 1686.50Q529 1700 503 1700Q429 1700 429 1626L429 1566L255 1566Z"  horiz-adv-x="1200" vert-adv-y="2048"  />

      
      <glyph glyph-name="uni01B7" unicode="&#x01B7;" d="M556-20Q260-20 74 151L218 292Q277 246 328.50 218Q380 190 435 177Q490 164 561 164Q708 164 791 228Q874 292 874 405Q874 533 769.50 602.50Q665 672 474 672L339 672L319 796L841 1295L840 1234L163 1234L163 1420L1016 1420L1016 1219L554 783L554 826Q806 822 944 713Q1082 604 1082 409Q1082 279 1018 182.50Q954 86 836 33Q718-20 556-20Z"  horiz-adv-x="1200" vert-adv-y="2048"  />

      
      <glyph glyph-name="uni46" unicode="&#x46;" d="M180 0L180 1420L380 1420L380 0L180 0M180 556L180 746L940 746L940 556L180 556M180 1230L180 1420L1120 1420L1120 1230L180 1230Z"  horiz-adv-x="1200" vert-adv-y="2048"  />

      
      <glyph glyph-name="uni47" unicode="&#x47;" d="M702-20Q384-20 225 163Q66 346 66 712Q66 1059 231 1249.50Q396 1440 694 1440Q843 1440 955 1393.50Q1067 1347 1120 1262L971 1114Q925 1182 855.50 1219Q786 1256 706 1256Q504 1256 392 1116.50Q280 977 280 722Q280 443 392 303.50Q504 164 726 164Q821 164 893.50 182.50Q966 201 1012 214L1090 40Q1048 27 942.50 3.50Q837-20 702-20M900 40L900 710L1090 710L1090 40L900 40M610 520L610 710L1084 710L1084 520L610 520Z"  horiz-adv-x="1200" vert-adv-y="2048"  />

      
      <glyph glyph-name="uni011E" unicode="&#x011E;" d="M702-20Q384-20 225 163Q66 346 66 712Q66 1059 231 1249.50Q396 1440 694 1440Q843 1440 955 1393.50Q1067 1347 1120 1262L971 1114Q925 1182 855.50 1219Q786 1256 706 1256Q504 1256 392 1116.50Q280 977 280 722Q280 443 392 303.50Q504 164 726 164Q821 164 893.50 182.50Q966 201 1012 214L1090 40Q1048 27 942.50 3.50Q837-20 702-20M900 40L900 710L1090 710L1090 40L900 40M610 520L610 710L1084 710L1084 520L610 520M675 1570Q497 1570 399 1646Q301 1722 301 1860L476 1860Q476 1787 528.50 1746.50Q581 1706 675 1706Q770 1706 822 1746.50Q874 1787 874 1860L1049 1860Q1049 1722 951 1646Q853 1570 675 1570Z"  horiz-adv-x="1200" vert-adv-y="2048"  />

      
      <glyph glyph-name="uni01E6" unicode="&#x01E6;" d="M702-20Q384-20 225 163Q66 346 66 712Q66 1059 231 1249.50Q396 1440 694 1440Q843 1440 955 1393.50Q1067 1347 1120 1262L971 1114Q925 1182 855.50 1219Q786 1256 706 1256Q504 1256 392 1116.50Q280 977 280 722Q280 443 392 303.50Q504 164 726 164Q821 164 893.50 182.50Q966 201 1012 214L1090 40Q1048 27 942.50 3.50Q837-20 702-20M900 40L900 710L1090 710L1090 40L900 40M610 520L610 710L1084 710L1084 520L610 520M589 1580L329 1840L551 1840L685 1684L665 1684L799 1840L1021 1840L761 1580L589 1580Z"  horiz-adv-x="1200" vert-adv-y="2048"  />

      
      <glyph glyph-name="uni011C" unicode="&#x011C;" d="M702-20Q384-20 225 163Q66 346 66 712Q66 1059 231 1249.50Q396 1440 694 1440Q843 1440 955 1393.50Q1067 1347 1120 1262L971 1114Q925 1182 855.50 1219Q786 1256 706 1256Q504 1256 392 1116.50Q280 977 280 722Q280 443 392 303.50Q504 164 726 164Q821 164 893.50 182.50Q966 201 1012 214L1090 40Q1048 27 942.50 3.50Q837-20 702-20M900 40L900 710L1090 710L1090 40L900 40M610 520L610 710L1084 710L1084 520L610 520M334 1580L594 1840L766 1840L1026 1580L804 1580L627 1785L733 1785L556 1580L334 1580Z"  horiz-adv-x="1200" vert-adv-y="2048"  />

      
      <glyph glyph-name="uni0122" unicode="&#x0122;" d="M702-20Q384-20 225 163Q66 346 66 712Q66 1059 231 1249.50Q396 1440 694 1440Q843 1440 955 1393.50Q1067 1347 1120 1262L971 1114Q925 1182 855.50 1219Q786 1256 706 1256Q504 1256 392 1116.50Q280 977 280 722Q280 443 392 303.50Q504 164 726 164Q821 164 893.50 182.50Q966 201 1012 214L1090 40Q1048 27 942.50 3.50Q837-20 702-20M900 40L900 710L1090 710L1090 40L900 40M610 520L610 710L1084 710L1084 520L610 520M510-480L587-140L809-140L692-480L510-480Z"  horiz-adv-x="1200" vert-adv-y="2048"  />

      
      <glyph glyph-name="uni0120" unicode="&#x0120;" d="M702-20Q384-20 225 163Q66 346 66 712Q66 1059 231 1249.50Q396 1440 694 1440Q843 1440 955 1393.50Q1067 1347 1120 1262L971 1114Q925 1182 855.50 1219Q786 1256 706 1256Q504 1256 392 1116.50Q280 977 280 722Q280 443 392 303.50Q504 164 726 164Q821 164 893.50 182.50Q966 201 1012 214L1090 40Q1048 27 942.50 3.50Q837-20 702-20M900 40L900 710L1090 710L1090 40L900 40M610 520L610 710L1084 710L1084 520L610 520M675 1580Q620 1580 580.50 1619.50Q541 1659 541 1714Q541 1770 580.50 1809Q620 1848 675 1848Q731 1848 770 1809Q809 1770 809 1714Q809 1659 770 1619.50Q731 1580 675 1580Z"  horiz-adv-x="1200" vert-adv-y="2048"  />

      
      <glyph glyph-name="uni01E4" unicode="&#x01E4;" d="M702-20Q384-20 225 163Q66 346 66 712Q66 1059 231 1249.50Q396 1440 694 1440Q843 1440 955 1393.50Q1067 1347 1120 1262L971 1114Q925 1182 855.50 1219Q786 1256 706 1256Q504 1256 392 1116.50Q280 977 280 722Q280 443 392 303.50Q504 164 726 164Q814 164 881.50 182.50Q949 201 992 214L1070 40Q1030 27 930 3.50Q830-20 702-20M880 40L880 710L1070 710L1070 40L880 40M640 370L640 560L1200 560L1200 370L640 370Z"  horiz-adv-x="1200" vert-adv-y="2048"  />

      
      <glyph glyph-name="uni48" unicode="&#x48;" d="M860 0L860 1420L1060 1420L1060 0L860 0M140 0L140 1420L340 1420L340 0L140 0M182 612L182 802L1023 802L1023 612L182 612Z"  horiz-adv-x="1200" vert-adv-y="2048"  />

      
      <glyph glyph-name="uni0126" unicode="&#x0126;" d="M42 1002L42 1192L1158 1192L1158 1002L42 1002M860 0L860 1420L1060 1420L1060 0L860 0M140 0L140 1420L340 1420L340 0L140 0M182 612L182 802L1023 802L1023 612L182 612Z"  horiz-adv-x="1200" vert-adv-y="2048"  />

      
      <glyph glyph-name="uni021E" unicode="&#x021E;" d="M860 0L860 1420L1060 1420L1060 0L860 0M140 0L140 1420L340 1420L340 0L140 0M182 612L182 802L1023 802L1023 612L182 612M514 1580L254 1840L476 1840L610 1684L590 1684L724 1840L946 1840L686 1580L514 1580Z"  horiz-adv-x="1200" vert-adv-y="2048"  />

      
      <glyph glyph-name="uni0124" unicode="&#x0124;" d="M860 0L860 1420L1060 1420L1060 0L860 0M140 0L140 1420L340 1420L340 0L140 0M182 612L182 802L1023 802L1023 612L182 612M259 1580L519 1840L691 1840L951 1580L729 1580L552 1785L658 1785L481 1580L259 1580Z"  horiz-adv-x="1200" vert-adv-y="2048"  />

      
      <glyph glyph-name="uni1E24" unicode="&#x1E24;" d="M860 0L860 1420L1060 1420L1060 0L860 0M140 0L140 1420L340 1420L340 0L140 0M182 612L182 802L1023 802L1023 612L182 612M600-420Q545-420 505.50-380.50Q466-341 466-286Q466-230 505.50-191Q545-152 600-152Q656-152 695-191Q734-230 734-286Q734-341 695-380.50Q656-420 600-420Z"  horiz-adv-x="1200" vert-adv-y="2048"  />

      
      <glyph glyph-name="uni49" unicode="&#x49;" d="M499 0L499 1420L699 1420L699 0L499 0M168 0L168 190L1032 190L1032 0L168 0M168 1230L168 1420L1032 1420L1032 1230L168 1230Z"  horiz-adv-x="1200" vert-adv-y="2048"  />

      
      <glyph glyph-name="uni0132" unicode="&#x0132;" d="M634-20Q429-20 327.50 74Q226 168 226 356L426 356Q426 258 479.50 209Q533 160 639 160Q761 160 821.50 228.50Q882 297 882 436L882 1420L1082 1420L1082 436Q1082 207 970.50 93.50Q859-20 634-20M55 497L55 687L599 687L599 497L55 497M231 497L231 1420L421 1420L421 497L231 497M55 1230L55 1420L579 1420L579 1230L55 1230M690 1230L690 1420L976 1420L976 1230L690 1230Z"  horiz-adv-x="1200" vert-adv-y="2048"  />

      
      <glyph glyph-name="unicd" unicode="&#xcd;" d="M499 0L499 1420L699 1420L699 0L499 0M168 0L168 190L1032 190L1032 0L168 0M168 1230L168 1420L1032 1420L1032 1230L168 1230M469 1580L689 1830L971 1830L701 1580L469 1580Z"  horiz-adv-x="1200" vert-adv-y="2048"  />

      
      <glyph glyph-name="uni012C" unicode="&#x012C;" d="M499 0L499 1420L699 1420L699 0L499 0M168 0L168 190L1032 190L1032 0L168 0M168 1230L168 1420L1032 1420L1032 1230L168 1230M600 1570Q422 1570 324 1646Q226 1722 226 1860L401 1860Q401 1787 453.50 1746.50Q506 1706 600 1706Q695 1706 747 1746.50Q799 1787 799 1860L974 1860Q974 1722 876 1646Q778 1570 600 1570Z"  horiz-adv-x="1200" vert-adv-y="2048"  />

      
      <glyph glyph-name="unice" unicode="&#xce;" d="M499 0L499 1420L699 1420L699 0L499 0M168 0L168 190L1032 190L1032 0L168 0M168 1230L168 1420L1032 1420L1032 1230L168 1230M259 1580L519 1840L691 1840L951 1580L729 1580L552 1785L658 1785L481 1580L259 1580Z"  horiz-adv-x="1200" vert-adv-y="2048"  />

      
      <glyph glyph-name="unicf" unicode="&#xcf;" d="M499 0L499 1420L699 1420L699 0L499 0M168 0L168 190L1032 190L1032 0L168 0M168 1230L168 1420L1032 1420L1032 1230L168 1230M808 1580Q753 1580 713.50 1619.50Q674 1659 674 1714Q674 1770 713.50 1809Q753 1848 808 1848Q864 1848 903 1809Q942 1770 942 1714Q942 1659 903 1619.50Q864 1580 808 1580M392 1580Q337 1580 297.50 1619.50Q258 1659 258 1714Q258 1770 297.50 1809Q337 1848 392 1848Q448 1848 487 1809Q526 1770 526 1714Q526 1659 487 1619.50Q448 1580 392 1580Z"  horiz-adv-x="1200" vert-adv-y="2048"  />

      
      <glyph glyph-name="uni0130" unicode="&#x0130;" d="M499 0L499 1420L699 1420L699 0L499 0M168 0L168 190L1032 190L1032 0L168 0M168 1230L168 1420L1032 1420L1032 1230L168 1230M600 1580Q545 1580 505.50 1619.50Q466 1659 466 1714Q466 1770 505.50 1809Q545 1848 600 1848Q656 1848 695 1809Q734 1770 734 1714Q734 1659 695 1619.50Q656 1580 600 1580Z"  horiz-adv-x="1200" vert-adv-y="2048"  />

      
      <glyph glyph-name="uni1ECA" unicode="&#x1ECA;" d="M499 0L499 1420L699 1420L699 0L499 0M168 0L168 190L1032 190L1032 0L168 0M168 1230L168 1420L1032 1420L1032 1230L168 1230M600-420Q545-420 505.50-380.50Q466-341 466-286Q466-230 505.50-191Q545-152 600-152Q656-152 695-191Q734-230 734-286Q734-341 695-380.50Q656-420 600-420Z"  horiz-adv-x="1200" vert-adv-y="2048"  />

      
      <glyph glyph-name="unicc" unicode="&#xcc;" d="M499 0L499 1420L699 1420L699 0L499 0M168 0L168 190L1032 190L1032 0L168 0M168 1230L168 1420L1032 1420L1032 1230L168 1230M509 1580L239 1830L521 1830L741 1580L509 1580Z"  horiz-adv-x="1200" vert-adv-y="2048"  />

      
      <glyph glyph-name="uni1EC8" unicode="&#x1EC8;" d="M499 0L499 1420L699 1420L699 0L499 0M168 0L168 190L1032 190L1032 0L168 0M168 1230L168 1420L1032 1420L1032 1230L168 1230M532 1529L532 1550Q532 1568 547 1585.50Q562 1603 598 1628Q637 1653 653 1669.50Q669 1686 669 1702Q669 1753 587 1753Q491 1753 423 1710L356 1829Q437 1904 608 1904Q835 1904 835 1741Q835 1681 808 1641.50Q781 1602 716 1564Q700 1555 693.50 1547Q687 1539 687 1529L532 1529Z"  horiz-adv-x="1200" vert-adv-y="2048"  />

      
      <glyph glyph-name="uni012A" unicode="&#x012A;" d="M499 0L499 1420L699 1420L699 0L499 0M168 0L168 190L1032 190L1032 0L168 0M168 1230L168 1420L1032 1420L1032 1230L168 1230M213 1580L213 1768L987 1768L987 1580L213 1580Z"  horiz-adv-x="1200" vert-adv-y="2048"  />

      
      <glyph glyph-name="uni012E" unicode="&#x012E;" d="M636-424Q521-424 458.50-368.50Q396-313 396-212Q396-138 425.50-88Q455-38 510-20L510 30L770 32L770 0Q664 0 605-44Q546-88 546-168Q546-210 576.50-233Q607-256 662-256Q697-256 744-245L726-415Q703-419 679.50-421.50Q656-424 636-424M499 0L499 1420L699 1420L699 0L499 0M168 0L168 190L1032 190L1032 0L168 0M168 1230L168 1420L1032 1420L1032 1230L168 1230Z"  horiz-adv-x="1200" vert-adv-y="2048"  />

      
      <glyph glyph-name="uni0196" unicode="&#x0196;" d="M758-20Q574-20 492 80Q410 180 410 400L410 1500L622 1500L622 410Q622 326 638 273Q654 220 700.50 195Q747 170 838 170Q921 170 1050 208L1074 22Q993 0 918.50-10Q844-20 758-20M98 1326L98 1500L428 1500L428 1326L98 1326Z"  horiz-adv-x="1200" vert-adv-y="2048"  />

      
      <glyph glyph-name="uni0128" unicode="&#x0128;" d="M499 0L499 1420L699 1420L699 0L499 0M168 0L168 190L1032 190L1032 0L168 0M168 1230L168 1420L1032 1420L1032 1230L168 1230M225 1566L225 1616Q225 1741 277.50 1803.50Q330 1866 435 1866Q476 1866 520.50 1853.50Q565 1841 623 1817Q682 1793 713 1779.50Q744 1766 769 1766Q823 1766 823 1830L823 1890L995 1890L995 1840Q995 1720 948 1660Q901 1600 807 1600Q773 1600 726 1614Q679 1628 614 1655Q571 1673 535 1686.50Q499 1700 473 1700Q399 1700 399 1626L399 1566L225 1566Z"  horiz-adv-x="1200" vert-adv-y="2048"  />

      
      <glyph glyph-name="uni4a" unicode="&#x4a;" d="M574-20Q340-20 213 110.50Q86 241 86 476L286 476Q286 326 362.50 243Q439 160 579 160Q715 160 788.50 242.50Q862 325 862 476L862 1420L1062 1420L1062 476Q1062 240 933 110Q804-20 574-20M490 1230L490 1420L956 1420L956 1230L490 1230Z"  horiz-adv-x="1200" vert-adv-y="2048"  />

      
      <glyph glyph-name="uni0134" unicode="&#x0134;" d="M574-20Q340-20 213 110.50Q86 241 86 476L286 476Q286 326 362.50 243Q439 160 579 160Q715 160 788.50 242.50Q862 325 862 476L862 1420L1062 1420L1062 476Q1062 240 933 110Q804-20 574-20M490 1230L490 1420L956 1420L956 1230L490 1230M449 1580L709 1840L881 1840L1141 1580L919 1580L742 1785L848 1785L671 1580L449 1580Z"  horiz-adv-x="1200" vert-adv-y="2048"  />

      
      <glyph glyph-name="uni4b" unicode="&#x4b;" d="M276 452L294 650Q448 650 560 714.50Q672 779 744.50 888.50Q817 998 852.50 1135.50Q888 1273 888 1420L1094 1420Q1094 1231 1039 1057Q984 883 879 746.50Q774 610 622 531Q470 452 276 452M150 0L150 1420L350 1420L350 0L150 0M920 0L560 692L740 794L1162 0L920 0Z"  horiz-adv-x="1200" vert-adv-y="2048"  />

      
      <glyph glyph-name="uni1E30" unicode="&#x1E30;" d="M276 452L294 650Q448 650 560 714.50Q672 779 744.50 888.50Q817 998 852.50 1135.50Q888 1273 888 1420L1094 1420Q1094 1231 1039 1057Q984 883 879 746.50Q774 610 622 531Q470 452 276 452M150 0L150 1420L350 1420L350 0L150 0M920 0L560 692L740 794L1162 0L920 0M489 1580L709 1830L991 1830L721 1580L489 1580Z"  horiz-adv-x="1200" vert-adv-y="2048"  />

      
      <glyph glyph-name="uni0136" unicode="&#x0136;" d="M276 452L294 650Q448 650 560 714.50Q672 779 744.50 888.50Q817 998 852.50 1135.50Q888 1273 888 1420L1094 1420Q1094 1231 1039 1057Q984 883 879 746.50Q774 610 622 531Q470 452 276 452M150 0L150 1420L350 1420L350 0L150 0M920 0L560 692L740 794L1162 0L920 0M435-480L512-140L734-140L617-480L435-480Z"  horiz-adv-x="1200" vert-adv-y="2048"  />

      
      <glyph glyph-name="uni1E32" unicode="&#x1E32;" d="M276 452L294 650Q448 650 560 714.50Q672 779 744.50 888.50Q817 998 852.50 1135.50Q888 1273 888 1420L1094 1420Q1094 1231 1039 1057Q984 883 879 746.50Q774 610 622 531Q470 452 276 452M150 0L150 1420L350 1420L350 0L150 0M920 0L560 692L740 794L1162 0L920 0M620-420Q565-420 525.50-380.50Q486-341 486-286Q486-230 525.50-191Q565-152 620-152Q676-152 715-191Q754-230 754-286Q754-341 715-380.50Q676-420 620-420Z"  horiz-adv-x="1200" vert-adv-y="2048"  />

      
      <glyph glyph-name="uni1E34" unicode="&#x1E34;" d="M276 452L294 650Q448 650 560 714.50Q672 779 744.50 888.50Q817 998 852.50 1135.50Q888 1273 888 1420L1094 1420Q1094 1231 1039 1057Q984 883 879 746.50Q774 610 622 531Q470 452 276 452M150 0L150 1420L350 1420L350 0L150 0M920 0L560 692L740 794L1162 0L920 0M190-396L190-208L1050-208L1050-396L190-396Z"  horiz-adv-x="1200" vert-adv-y="2048"  />

      
      <glyph glyph-name="uni4c" unicode="&#x4c;" d="M160 0L160 1420L360 1420L360 0L160 0M160 0L160 190L1100 190L1100 0L160 0Z"  horiz-adv-x="1200" vert-adv-y="2048"  />

      
      <glyph glyph-name="uni0139" unicode="&#x0139;" d="M160 0L160 1420L360 1420L360 0L160 0M160 0L160 190L1100 190L1100 0L160 0M129 1580L349 1830L631 1830L361 1580L129 1580Z"  horiz-adv-x="1200" vert-adv-y="2048"  />

      
      <glyph glyph-name="uni023D" unicode="&#x023D;" d="M-20 647L-20 837L816 837L816 647L-20 647M160 0L160 1420L360 1420L360 0L160 0M160 0L160 190L1100 190L1100 0L160 0Z"  horiz-adv-x="1200" vert-adv-y="2048"  />

      
      <glyph glyph-name="uni013D" unicode="&#x013D;" d="M762 1188L812 1568L1024 1568L934 1188L762 1188M160 0L160 1420L360 1420L360 0L160 0M160 0L160 190L1100 190L1100 0L160 0Z"  horiz-adv-x="1200" vert-adv-y="2048"  />

      
      <glyph glyph-name="uni013B" unicode="&#x013B;" d="M160 0L160 1420L360 1420L360 0L160 0M160 0L160 190L1100 190L1100 0L160 0M435-480L512-140L734-140L617-480L435-480Z"  horiz-adv-x="1200" vert-adv-y="2048"  />

      
      <glyph glyph-name="uni013F" unicode="&#x013F;" d="M160 0L160 1420L360 1420L360 0L160 0M160 0L160 190L1100 190L1100 0L160 0Z"  horiz-adv-x="1200" vert-adv-y="2048"  />

      
      <glyph glyph-name="uni1E36" unicode="&#x1E36;" d="M160 0L160 1420L360 1420L360 0L160 0M160 0L160 190L1100 190L1100 0L160 0M620-420Q565-420 525.50-380.50Q486-341 486-286Q486-230 525.50-191Q565-152 620-152Q676-152 715-191Q754-230 754-286Q754-341 715-380.50Q676-420 620-420Z"  horiz-adv-x="1200" vert-adv-y="2048"  />

      
      <glyph glyph-name="uni1E3A" unicode="&#x1E3A;" d="M160 0L160 1420L360 1420L360 0L160 0M160 0L160 190L1100 190L1100 0L160 0M190-396L190-208L1050-208L1050-396L190-396Z"  horiz-adv-x="1200" vert-adv-y="2048"  />

      
      <glyph glyph-name="uni2C62" unicode="&#x2C62;" d="M334 0L334 1420L520 1420L520 0L334 0M334 0L334 190L1100 190L1100 0L334 0M-1 589L-1 673Q-1 801 53 859Q107 917 225 917Q270 917 311 906.50Q352 896 390 880Q428 864 463 846Q516 819 555 798Q594 777 639 777Q670 777 683.50 795Q697 813 697 852L697 944L879 944L879 860Q879 732 831 674Q783 616 677 616Q634 616 593 626.50Q552 637 514.50 653Q477 669 442 687Q388 716 346.50 736Q305 756 256 756Q216 756 198.50 738Q181 720 181 681L181 589L-1 589Z"  horiz-adv-x="1200" vert-adv-y="2048"  />

      
      <glyph glyph-name="uni0141" unicode="&#x0141;" d="M58 455L58 640L864 1060L864 875L58 455M260 0L260 190L1100 190L1100 0L260 0M260 0L260 1420L460 1420L460 0L260 0Z"  horiz-adv-x="1200" vert-adv-y="2048"  />

      
      <glyph glyph-name="uni4d" unicode="&#x4d;" d="M566 580L596 810L608 810L770 1420L912 1420L912 1168L854 1168L692 580L566 580M128 0L128 1420L320 1420L320 0L128 0M508 580L346 1168L288 1168L288 1420L430 1420L592 810L600 810L620 580L508 580M880 0L880 1420L1072 1420L1072 0L880 0Z"  horiz-adv-x="1200" vert-adv-y="2048"  />

      
      <glyph glyph-name="uni4e" unicode="&#x4e;" d="M800 0L360 1080L268 1080L268 1420L400 1420L840 340L890 340L890 0L800 0M148 0L148 1420L340 1420L340 0L148 0M860 0L860 1420L1052 1420L1052 0L860 0Z"  horiz-adv-x="1200" vert-adv-y="2048"  />

      
      <glyph glyph-name="uni0143" unicode="&#x0143;" d="M800 0L360 1080L268 1080L268 1420L400 1420L840 340L890 340L890 0L800 0M148 0L148 1420L340 1420L340 0L148 0M860 0L860 1420L1052 1420L1052 0L860 0M469 1580L689 1830L971 1830L701 1580L469 1580Z"  horiz-adv-x="1200" vert-adv-y="2048"  />

      
      <glyph glyph-name="uni0147" unicode="&#x0147;" d="M800 0L360 1080L268 1080L268 1420L400 1420L840 340L890 340L890 0L800 0M148 0L148 1420L340 1420L340 0L148 0M860 0L860 1420L1052 1420L1052 0L860 0M514 1580L254 1840L476 1840L610 1684L590 1684L724 1840L946 1840L686 1580L514 1580Z"  horiz-adv-x="1200" vert-adv-y="2048"  />

      
      <glyph glyph-name="uni0145" unicode="&#x0145;" d="M800 0L360 1080L268 1080L268 1420L400 1420L840 340L890 340L890 0L800 0M148 0L148 1420L340 1420L340 0L148 0M860 0L860 1420L1052 1420L1052 0L860 0M415-480L492-140L714-140L597-480L415-480Z"  horiz-adv-x="1200" vert-adv-y="2048"  />

      
      <glyph glyph-name="uni014A" unicode="&#x014A;" d="M593-480L583-312L703-294Q781-282 820-232Q859-182 859-88L859 184L1052 184L1052-96Q1052-204 1013.50-284Q975-364 901.50-411Q828-458 723-468L593-480M800 0L360 1080L268 1080L268 1420L400 1420L840 340L890 340L890 0L800 0M148 0L148 1420L340 1420L340 0L148 0M860 0L860 1420L1052 1420L1052 0L860 0Z"  horiz-adv-x="1200" vert-adv-y="2048"  />

      
      <glyph glyph-name="uni019D" unicode="&#x019D;" d="M-68-476L-78-305L-8-294Q69-282 108.50-232Q148-182 148-88L148 184L341 184L341-96Q341-261 255-356.50Q169-452 12-468L-68-476M800 0L360 1080L268 1080L268 1420L400 1420L840 340L890 340L890 0L800 0M148 0L148 1420L340 1420L340 0L148 0M860 0L860 1420L1052 1420L1052 0L860 0Z"  horiz-adv-x="1200" vert-adv-y="2048"  />

      
      <glyph glyph-name="uni1E48" unicode="&#x1E48;" d="M800 0L360 1080L268 1080L268 1420L400 1420L840 340L890 340L890 0L800 0M148 0L148 1420L340 1420L340 0L148 0M860 0L860 1420L1052 1420L1052 0L860 0M170-396L170-208L1030-208L1030-396L170-396Z"  horiz-adv-x="1200" vert-adv-y="2048"  />

      
      <glyph glyph-name="unid1" unicode="&#xd1;" d="M800 0L360 1080L268 1080L268 1420L400 1420L840 340L890 340L890 0L800 0M148 0L148 1420L340 1420L340 0L148 0M860 0L860 1420L1052 1420L1052 0L860 0M225 1566L225 1616Q225 1741 277.50 1803.50Q330 1866 435 1866Q476 1866 520.50 1853.50Q565 1841 623 1817Q682 1793 713 1779.50Q744 1766 769 1766Q823 1766 823 1830L823 1890L995 1890L995 1840Q995 1720 948 1660Q901 1600 807 1600Q773 1600 726 1614Q679 1628 614 1655Q571 1673 535 1686.50Q499 1700 473 1700Q399 1700 399 1626L399 1566L225 1566Z"  horiz-adv-x="1200" vert-adv-y="2048"  />

      
      <glyph glyph-name="uni4f" unicode="&#x4f;" d="M600-20Q76-20 76 700Q76 1440 600 1440Q1124 1440 1124 700Q1124-20 600-20M600 164Q914 164 914 700Q914 1256 600 1256Q286 1256 286 700Q286 164 600 164Z"  horiz-adv-x="1200" vert-adv-y="2048"  />

      
      <glyph glyph-name="unid3" unicode="&#xd3;" d="M600-20Q76-20 76 700Q76 1440 600 1440Q1124 1440 1124 700Q1124-20 600-20M600 164Q914 164 914 700Q914 1256 600 1256Q286 1256 286 700Q286 164 600 164M469 1580L689 1830L971 1830L701 1580L469 1580Z"  horiz-adv-x="1200" vert-adv-y="2048"  />

      
      <glyph glyph-name="uni014E" unicode="&#x014E;" d="M600-20Q76-20 76 700Q76 1440 600 1440Q1124 1440 1124 700Q1124-20 600-20M600 164Q914 164 914 700Q914 1256 600 1256Q286 1256 286 700Q286 164 600 164M600 1570Q422 1570 324 1646Q226 1722 226 1860L401 1860Q401 1787 453.50 1746.50Q506 1706 600 1706Q695 1706 747 1746.50Q799 1787 799 1860L974 1860Q974 1722 876 1646Q778 1570 600 1570Z"  horiz-adv-x="1200" vert-adv-y="2048"  />

      
      <glyph glyph-name="unid4" unicode="&#xd4;" d="M600-20Q76-20 76 700Q76 1440 600 1440Q1124 1440 1124 700Q1124-20 600-20M600 164Q914 164 914 700Q914 1256 600 1256Q286 1256 286 700Q286 164 600 164M259 1580L519 1840L691 1840L951 1580L729 1580L552 1785L658 1785L481 1580L259 1580Z"  horiz-adv-x="1200" vert-adv-y="2048"  />

      
      <glyph glyph-name="uni1ED0" unicode="&#x1ED0;" d="M600-20Q76-20 76 700Q76 1440 600 1440Q1124 1440 1124 700Q1124-20 600-20M600 164Q914 164 914 700Q914 1256 600 1256Q286 1256 286 700Q286 164 600 164M259 1580L519 1840L691 1840L951 1580L729 1580L552 1785L658 1785L481 1580L259 1580M820 1828L1040 2078L1322 2078L1052 1828L820 1828Z"  horiz-adv-x="1200" vert-adv-y="2048"  />

      
      <glyph glyph-name="uni1ED8" unicode="&#x1ED8;" d="M600-20Q76-20 76 700Q76 1440 600 1440Q1124 1440 1124 700Q1124-20 600-20M600 164Q914 164 914 700Q914 1256 600 1256Q286 1256 286 700Q286 164 600 164M600-420Q545-420 505.50-380.50Q466-341 466-286Q466-230 505.50-191Q545-152 600-152Q656-152 695-191Q734-230 734-286Q734-341 695-380.50Q656-420 600-420M259 1580L519 1840L691 1840L951 1580L729 1580L552 1785L658 1785L481 1580L259 1580Z"  horiz-adv-x="1200" vert-adv-y="2048"  />

      
      <glyph glyph-name="uni1ED2" unicode="&#x1ED2;" d="M600-20Q76-20 76 700Q76 1440 600 1440Q1124 1440 1124 700Q1124-20 600-20M600 164Q914 164 914 700Q914 1256 600 1256Q286 1256 286 700Q286 164 600 164M259 1580L519 1840L691 1840L951 1580L729 1580L552 1785L658 1785L481 1580L259 1580M860 1828L590 2078L872 2078L1092 1828L860 1828Z"  horiz-adv-x="1200" vert-adv-y="2048"  />

      
      <glyph glyph-name="uni1ED4" unicode="&#x1ED4;" d="M600-20Q76-20 76 700Q76 1440 600 1440Q1124 1440 1124 700Q1124-20 600-20M600 164Q914 164 914 700Q914 1256 600 1256Q286 1256 286 700Q286 164 600 164M259 1580L519 1840L691 1840L951 1580L729 1580L552 1785L658 1785L481 1580L259 1580M883 1777L883 1798Q883 1816 898 1833.50Q913 1851 949 1876Q988 1901 1004 1917.50Q1020 1934 1020 1950Q1020 2001 938 2001Q842 2001 774 1958L707 2077Q788 2152 959 2152Q1186 2152 1186 1989Q1186 1929 1159 1889.50Q1132 1850 1067 1812Q1051 1803 1044.50 1795Q1038 1787 1038 1777L883 1777Z"  horiz-adv-x="1200" vert-adv-y="2048"  />

      
      <glyph glyph-name="uni1ED6" unicode="&#x1ED6;" d="M600-20Q76-20 76 700Q76 1440 600 1440Q1124 1440 1124 700Q1124-20 600-20M600 164Q914 164 914 700Q914 1256 600 1256Q286 1256 286 700Q286 164 600 164M259 1580L519 1840L691 1840L951 1580L729 1580L552 1785L658 1785L481 1580L259 1580M225 1946L225 1996Q225 2121 277.50 2183.50Q330 2246 435 2246Q476 2246 520.50 2233.50Q565 2221 623 2197Q682 2173 713 2159.50Q744 2146 769 2146Q823 2146 823 2210L823 2270L995 2270L995 2220Q995 2100 948 2040Q901 1980 807 1980Q773 1980 726 1994Q679 2008 614 2035Q571 2053 535 2066.50Q499 2080 473 2080Q399 2080 399 2006L399 1946L225 1946Z"  horiz-adv-x="1200" vert-adv-y="2048"  />

      
      <glyph glyph-name="unid6" unicode="&#xd6;" d="M600-20Q76-20 76 700Q76 1440 600 1440Q1124 1440 1124 700Q1124-20 600-20M600 164Q914 164 914 700Q914 1256 600 1256Q286 1256 286 700Q286 164 600 164M808 1580Q753 1580 713.50 1619.50Q674 1659 674 1714Q674 1770 713.50 1809Q753 1848 808 1848Q864 1848 903 1809Q942 1770 942 1714Q942 1659 903 1619.50Q864 1580 808 1580M392 1580Q337 1580 297.50 1619.50Q258 1659 258 1714Q258 1770 297.50 1809Q337 1848 392 1848Q448 1848 487 1809Q526 1770 526 1714Q526 1659 487 1619.50Q448 1580 392 1580Z"  horiz-adv-x="1200" vert-adv-y="2048"  />

      
      <glyph glyph-name="uni1ECC" unicode="&#x1ECC;" d="M600-20Q76-20 76 700Q76 1440 600 1440Q1124 1440 1124 700Q1124-20 600-20M600 164Q914 164 914 700Q914 1256 600 1256Q286 1256 286 700Q286 164 600 164M600-420Q545-420 505.50-380.50Q466-341 466-286Q466-230 505.50-191Q545-152 600-152Q656-152 695-191Q734-230 734-286Q734-341 695-380.50Q656-420 600-420Z"  horiz-adv-x="1200" vert-adv-y="2048"  />

      
      <glyph glyph-name="unid2" unicode="&#xd2;" d="M600-20Q76-20 76 700Q76 1440 600 1440Q1124 1440 1124 700Q1124-20 600-20M600 164Q914 164 914 700Q914 1256 600 1256Q286 1256 286 700Q286 164 600 164M509 1580L239 1830L521 1830L741 1580L509 1580Z"  horiz-adv-x="1200" vert-adv-y="2048"  />

      
      <glyph glyph-name="uni1ECE" unicode="&#x1ECE;" d="M600-20Q76-20 76 700Q76 1440 600 1440Q1124 1440 1124 700Q1124-20 600-20M600 164Q914 164 914 700Q914 1256 600 1256Q286 1256 286 700Q286 164 600 164M532 1529L532 1550Q532 1568 547 1585.50Q562 1603 598 1628Q637 1653 653 1669.50Q669 1686 669 1702Q669 1753 587 1753Q491 1753 423 1710L356 1829Q437 1904 608 1904Q835 1904 835 1741Q835 1681 808 1641.50Q781 1602 716 1564Q700 1555 693.50 1547Q687 1539 687 1529L532 1529Z"  horiz-adv-x="1200" vert-adv-y="2048"  />

      
      <glyph glyph-name="uni01A0" unicode="&#x01A0;" d="M600-20Q76-20 76 700Q76 1440 600 1440Q1124 1440 1124 700Q1124-20 600-20M600 164Q914 164 914 700Q914 1256 600 1256Q286 1256 286 700Q286 164 600 164M841 1205L791 1370L851 1380Q954 1397 1005 1465.50Q1056 1534 1056 1653L1248 1653Q1248 1463 1161.50 1353.50Q1075 1244 901 1215L841 1205Z"  horiz-adv-x="1200" vert-adv-y="2048"  />

      
      <glyph glyph-name="uni1EDA" unicode="&#x1EDA;" d="M600-20Q76-20 76 700Q76 1440 600 1440Q1124 1440 1124 700Q1124-20 600-20M600 164Q914 164 914 700Q914 1256 600 1256Q286 1256 286 700Q286 164 600 164M841 1205L791 1370L851 1380Q954 1397 1005 1465.50Q1056 1534 1056 1653L1248 1653Q1248 1463 1161.50 1353.50Q1075 1244 901 1215L841 1205M469 1580L689 1830L971 1830L701 1580L469 1580Z"  horiz-adv-x="1200" vert-adv-y="2048"  />

      
      <glyph glyph-name="uni1EE2" unicode="&#x1EE2;" d="M600-20Q76-20 76 700Q76 1440 600 1440Q1124 1440 1124 700Q1124-20 600-20M600 164Q914 164 914 700Q914 1256 600 1256Q286 1256 286 700Q286 164 600 164M841 1205L791 1370L851 1380Q954 1397 1005 1465.50Q1056 1534 1056 1653L1248 1653Q1248 1463 1161.50 1353.50Q1075 1244 901 1215L841 1205M600-420Q545-420 505.50-380.50Q466-341 466-286Q466-230 505.50-191Q545-152 600-152Q656-152 695-191Q734-230 734-286Q734-341 695-380.50Q656-420 600-420Z"  horiz-adv-x="1200" vert-adv-y="2048"  />

      
      <glyph glyph-name="uni1EDC" unicode="&#x1EDC;" d="M600-20Q76-20 76 700Q76 1440 600 1440Q1124 1440 1124 700Q1124-20 600-20M600 164Q914 164 914 700Q914 1256 600 1256Q286 1256 286 700Q286 164 600 164M841 1205L791 1370L851 1380Q954 1397 1005 1465.50Q1056 1534 1056 1653L1248 1653Q1248 1463 1161.50 1353.50Q1075 1244 901 1215L841 1205M509 1580L239 1830L521 1830L741 1580L509 1580Z"  horiz-adv-x="1200" vert-adv-y="2048"  />

      
      <glyph glyph-name="uni1EDE" unicode="&#x1EDE;" d="M600-20Q76-20 76 700Q76 1440 600 1440Q1124 1440 1124 700Q1124-20 600-20M600 164Q914 164 914 700Q914 1256 600 1256Q286 1256 286 700Q286 164 600 164M841 1205L791 1370L851 1380Q954 1397 1005 1465.50Q1056 1534 1056 1653L1248 1653Q1248 1463 1161.50 1353.50Q1075 1244 901 1215L841 1205M532 1529L532 1550Q532 1568 547 1585.50Q562 1603 598 1628Q637 1653 653 1669.50Q669 1686 669 1702Q669 1753 587 1753Q491 1753 423 1710L356 1829Q437 1904 608 1904Q835 1904 835 1741Q835 1681 808 1641.50Q781 1602 716 1564Q700 1555 693.50 1547Q687 1539 687 1529L532 1529Z"  horiz-adv-x="1200" vert-adv-y="2048"  />

      
      <glyph glyph-name="uni1EE0" unicode="&#x1EE0;" d="M600-20Q76-20 76 700Q76 1440 600 1440Q1124 1440 1124 700Q1124-20 600-20M600 164Q914 164 914 700Q914 1256 600 1256Q286 1256 286 700Q286 164 600 164M841 1205L791 1370L851 1380Q954 1397 1005 1465.50Q1056 1534 1056 1653L1248 1653Q1248 1463 1161.50 1353.50Q1075 1244 901 1215L841 1205M225 1566L225 1616Q225 1741 277.50 1803.50Q330 1866 435 1866Q476 1866 520.50 1853.50Q565 1841 623 1817Q682 1793 713 1779.50Q744 1766 769 1766Q823 1766 823 1830L823 1890L995 1890L995 1840Q995 1720 948 1660Q901 1600 807 1600Q773 1600 726 1614Q679 1628 614 1655Q571 1673 535 1686.50Q499 1700 473 1700Q399 1700 399 1626L399 1566L225 1566Z"  horiz-adv-x="1200" vert-adv-y="2048"  />

      
      <glyph glyph-name="uni0150" unicode="&#x0150;" d="M600-20Q76-20 76 700Q76 1440 600 1440Q1124 1440 1124 700Q1124-20 600-20M600 164Q914 164 914 700Q914 1256 600 1256Q286 1256 286 700Q286 164 600 164M659 1580L819 1830L1101 1830L901 1580L659 1580M249 1580L409 1830L691 1830L491 1580L249 1580Z"  horiz-adv-x="1200" vert-adv-y="2048"  />

      
      <glyph glyph-name="uni014C" unicode="&#x014C;" d="M600-20Q76-20 76 700Q76 1440 600 1440Q1124 1440 1124 700Q1124-20 600-20M600 164Q914 164 914 700Q914 1256 600 1256Q286 1256 286 700Q286 164 600 164M213 1580L213 1768L987 1768L987 1580L213 1580Z"  horiz-adv-x="1200" vert-adv-y="2048"  />

      
      <glyph glyph-name="uni1E52" unicode="&#x1E52;" d="M600-20Q76-20 76 700Q76 1440 600 1440Q1124 1440 1124 700Q1124-20 600-20M600 164Q914 164 914 700Q914 1256 600 1256Q286 1256 286 700Q286 164 600 164M213 1580L213 1768L987 1768L987 1580L213 1580M469 1880L689 2130L971 2130L701 1880L469 1880Z"  horiz-adv-x="1200" vert-adv-y="2048"  />

      
      <glyph glyph-name="uni1E50" unicode="&#x1E50;" d="M600-20Q76-20 76 700Q76 1440 600 1440Q1124 1440 1124 700Q1124-20 600-20M600 164Q914 164 914 700Q914 1256 600 1256Q286 1256 286 700Q286 164 600 164M213 1580L213 1768L987 1768L987 1580L213 1580M509 1880L239 2130L521 2130L741 1880L509 1880Z"  horiz-adv-x="1200" vert-adv-y="2048"  />

      
      <glyph glyph-name="uni01EA" unicode="&#x01EA;" d="M658-424Q543-424 480.50-373.50Q418-323 418-232Q418-78 532-40L532 30L742 40L786 8Q737-9 686.50-28Q636-47 602-79.50Q568-112 568-168Q568-194 591-225Q614-256 684-256Q721-256 766-245L748-415Q723-419 700.50-421.50Q678-424 658-424M600-20Q76-20 76 700Q76 1440 600 1440Q1124 1440 1124 700Q1124-20 600-20M600 164Q914 164 914 700Q914 1256 600 1256Q286 1256 286 700Q286 164 600 164Z"  horiz-adv-x="1200" vert-adv-y="2048"  />

      
      <glyph glyph-name="uni0186" unicode="&#x0186;" d="M506-20Q371-20 253.50 23Q136 66 47 151L191 292Q250 243 299.50 215Q349 187 400.50 175.50Q452 164 517 164Q711 164 819 308Q927 452 927 705Q927 968 807 1112Q687 1256 451 1256Q303 1256 162 1196L116 1372Q290 1440 485 1440Q805 1440 969.50 1253Q1134 1066 1134 713Q1134 370 977 175Q820-20 506-20Z"  horiz-adv-x="1200" vert-adv-y="2048"  />

      
      <glyph glyph-name="unid8" unicode="&#xd8;" d="M201-134L66-59L979 1532L1114 1457L201-134M600-20Q76-20 76 700Q76 1440 600 1440Q1124 1440 1124 700Q1124-20 600-20M600 164Q914 164 914 700Q914 1256 600 1256Q286 1256 286 700Q286 164 600 164Z"  horiz-adv-x="1200" vert-adv-y="2048"  />

      
      <glyph glyph-name="uni01FE" unicode="&#x01FE;" d="M201-134L66-59L979 1532L1114 1457L201-134M600-20Q76-20 76 700Q76 1440 600 1440Q1124 1440 1124 700Q1124-20 600-20M600 164Q914 164 914 700Q914 1256 600 1256Q286 1256 286 700Q286 164 600 164M469 1580L689 1830L971 1830L701 1580L469 1580Z"  horiz-adv-x="1200" vert-adv-y="2048"  />

      
      <glyph glyph-name="unid5" unicode="&#xd5;" d="M600-20Q76-20 76 700Q76 1440 600 1440Q1124 1440 1124 700Q1124-20 600-20M600 164Q914 164 914 700Q914 1256 600 1256Q286 1256 286 700Q286 164 600 164M225 1566L225 1616Q225 1741 277.50 1803.50Q330 1866 435 1866Q476 1866 520.50 1853.50Q565 1841 623 1817Q682 1793 713 1779.50Q744 1766 769 1766Q823 1766 823 1830L823 1890L995 1890L995 1840Q995 1720 948 1660Q901 1600 807 1600Q773 1600 726 1614Q679 1628 614 1655Q571 1673 535 1686.50Q499 1700 473 1700Q399 1700 399 1626L399 1566L225 1566Z"  horiz-adv-x="1200" vert-adv-y="2048"  />

      
      <glyph glyph-name="uni0152" unicode="&#x0152;" d="M520-20Q309-20 192.50 168.50Q76 357 76 700Q76 1053 192.50 1246.50Q309 1440 520 1440Q574 1440 614 1430Q654 1420 700 1420L780 1420L780 0L700 0Q665 0 620.50-10Q576-20 520-20M650 0L650 180L1100 180L1100 0L650 0M530 164Q570 164 600 170L600 1234Q565 1256 520 1256Q408 1256 347 1110.50Q286 965 286 700Q286 444 350 304Q414 164 530 164M670 621L670 801L1040 801L1040 621L670 621M640 1240L640 1420L1100 1420L1100 1240L640 1240Z"  horiz-adv-x="1200" vert-adv-y="2048"  />

      
      <glyph glyph-name="uni50" unicode="&#x50;" d="M336 440L336 630L578 630Q742 630 826 711.50Q910 793 910 950Q910 1088 826 1159Q742 1230 578 1230L340 1230L340 1420L578 1420Q845 1420 982.50 1301Q1120 1182 1120 950Q1120 699 982.50 569.50Q845 440 578 440L336 440M160 0L160 1420L360 1420L360 0L160 0Z"  horiz-adv-x="1200" vert-adv-y="2048"  />

      
      <glyph glyph-name="unide" unicode="&#xde;" d="M336 220L336 410L578 410Q736 410 823 489Q910 568 910 710Q910 854 823 932Q736 1010 578 1010L340 1010L340 1200L578 1200Q836 1200 978 1072Q1120 944 1120 710Q1120 476 978 348Q836 220 578 220L336 220M160 0L160 1420L360 1420L360 0L160 0Z"  horiz-adv-x="1200" vert-adv-y="2048"  />

      
      <glyph glyph-name="uni51" unicode="&#x51;" d="M930-460Q714-460 605-350Q496-240 496-20L496 62L694 62L694-22Q694-151 753-215.50Q812-280 930-280L1032-280L1012-460L930-460M600-20Q76-20 76 700Q76 1440 600 1440Q1124 1440 1124 700Q1124-20 600-20M600 164Q914 164 914 700Q914 1256 600 1256Q286 1256 286 700Q286 164 600 164Z"  horiz-adv-x="1200" vert-adv-y="2048"  />

      
      <glyph glyph-name="uni52" unicode="&#x52;" d="M326 540L326 730L628 730Q747 730 813.50 793Q880 856 880 970Q880 1095 813.50 1162.50Q747 1230 628 1230L330 1230L306 1420L628 1420Q849 1420 969.50 1308Q1090 1196 1090 990Q1090 776 969.50 658Q849 540 628 540L326 540M140 0L140 1420L340 1420L340 0L140 0M902 0L584 668L804 668L1142 0L902 0Z"  horiz-adv-x="1200" vert-adv-y="2048"  />

      
      <glyph glyph-name="uni0154" unicode="&#x0154;" d="M326 540L326 730L628 730Q747 730 813.50 793Q880 856 880 970Q880 1095 813.50 1162.50Q747 1230 628 1230L330 1230L306 1420L628 1420Q849 1420 969.50 1308Q1090 1196 1090 990Q1090 776 969.50 658Q849 540 628 540L326 540M140 0L140 1420L340 1420L340 0L140 0M902 0L584 668L804 668L1142 0L902 0M429 1580L649 1830L931 1830L661 1580L429 1580Z"  horiz-adv-x="1200" vert-adv-y="2048"  />

      
      <glyph glyph-name="uni0158" unicode="&#x0158;" d="M326 540L326 730L628 730Q747 730 813.50 793Q880 856 880 970Q880 1095 813.50 1162.50Q747 1230 628 1230L330 1230L306 1420L628 1420Q849 1420 969.50 1308Q1090 1196 1090 990Q1090 776 969.50 658Q849 540 628 540L326 540M140 0L140 1420L340 1420L340 0L140 0M902 0L584 668L804 668L1142 0L902 0M474 1580L214 1840L436 1840L570 1684L550 1684L684 1840L906 1840L646 1580L474 1580Z"  horiz-adv-x="1200" vert-adv-y="2048"  />

      
      <glyph glyph-name="uni0156" unicode="&#x0156;" d="M326 540L326 730L628 730Q747 730 813.50 793Q880 856 880 970Q880 1095 813.50 1162.50Q747 1230 628 1230L330 1230L306 1420L628 1420Q849 1420 969.50 1308Q1090 1196 1090 990Q1090 776 969.50 658Q849 540 628 540L326 540M140 0L140 1420L340 1420L340 0L140 0M902 0L584 668L804 668L1142 0L902 0M425-480L502-140L724-140L607-480L425-480Z"  horiz-adv-x="1200" vert-adv-y="2048"  />

      
      <glyph glyph-name="uni1E5A" unicode="&#x1E5A;" d="M326 540L326 730L628 730Q747 730 813.50 793Q880 856 880 970Q880 1095 813.50 1162.50Q747 1230 628 1230L330 1230L306 1420L628 1420Q849 1420 969.50 1308Q1090 1196 1090 990Q1090 776 969.50 658Q849 540 628 540L326 540M140 0L140 1420L340 1420L340 0L140 0M902 0L584 668L804 668L1142 0L902 0M610-420Q555-420 515.50-380.50Q476-341 476-286Q476-230 515.50-191Q555-152 610-152Q666-152 705-191Q744-230 744-286Q744-341 705-380.50Q666-420 610-420Z"  horiz-adv-x="1200" vert-adv-y="2048"  />

      
      <glyph glyph-name="uni53" unicode="&#x53;" d="M551-20Q430-20 324.50-0.50Q219 19 129 58L155 260Q265 213 367.50 188.50Q470 164 567 164Q707 164 775 213Q843 262 843 362Q843 489 713 548L467 660Q322 726 244.50 819Q167 912 167 1050Q167 1236 279 1338Q391 1440 596 1440Q739 1440 849 1398Q959 1356 1061 1261L921 1119Q833 1191 756.50 1223.50Q680 1256 597 1256Q494 1256 437.50 1206.50Q381 1157 381 1060Q381 991 418 947.50Q455 904 527 870L735 772Q893 698 975 605Q1057 512 1057 366Q1057 173 931.50 76.50Q806-20 551-20Z"  horiz-adv-x="1200" vert-adv-y="2048"  />

      
      <glyph glyph-name="uni015A" unicode="&#x015A;" d="M551-20Q430-20 324.50-0.50Q219 19 129 58L155 260Q265 213 367.50 188.50Q470 164 567 164Q707 164 775 213Q843 262 843 362Q843 489 713 548L467 660Q322 726 244.50 819Q167 912 167 1050Q167 1236 279 1338Q391 1440 596 1440Q739 1440 849 1398Q959 1356 1061 1261L921 1119Q833 1191 756.50 1223.50Q680 1256 597 1256Q494 1256 437.50 1206.50Q381 1157 381 1060Q381 991 418 947.50Q455 904 527 870L735 772Q893 698 975 605Q1057 512 1057 366Q1057 173 931.50 76.50Q806-20 551-20M489 1580L709 1830L991 1830L721 1580L489 1580Z"  horiz-adv-x="1200" vert-adv-y="2048"  />

      
      <glyph glyph-name="uni0160" unicode="&#x0160;" d="M551-20Q430-20 324.50-0.50Q219 19 129 58L155 260Q265 213 367.50 188.50Q470 164 567 164Q707 164 775 213Q843 262 843 362Q843 489 713 548L467 660Q322 726 244.50 819Q167 912 167 1050Q167 1236 279 1338Q391 1440 596 1440Q739 1440 849 1398Q959 1356 1061 1261L921 1119Q833 1191 756.50 1223.50Q680 1256 597 1256Q494 1256 437.50 1206.50Q381 1157 381 1060Q381 991 418 947.50Q455 904 527 870L735 772Q893 698 975 605Q1057 512 1057 366Q1057 173 931.50 76.50Q806-20 551-20M534 1580L274 1840L496 1840L630 1684L610 1684L744 1840L966 1840L706 1580L534 1580Z"  horiz-adv-x="1200" vert-adv-y="2048"  />

      
      <glyph glyph-name="uni015E" unicode="&#x015E;" d="M551-20Q430-20 324.50-0.50Q219 19 129 58L155 260Q265 213 367.50 188.50Q470 164 567 164Q707 164 775 213Q843 262 843 362Q843 489 713 548L467 660Q322 726 244.50 819Q167 912 167 1050Q167 1236 279 1338Q391 1440 596 1440Q739 1440 849 1398Q959 1356 1061 1261L921 1119Q833 1191 756.50 1223.50Q680 1256 597 1256Q494 1256 437.50 1206.50Q381 1157 381 1060Q381 991 418 947.50Q455 904 527 870L735 772Q893 698 975 605Q1057 512 1057 366Q1057 173 931.50 76.50Q806-20 551-20M449-480L449-330Q544-330 590.50-312Q637-294 637-258Q637-223 597-206.50Q557-190 475-190L544 6L680-5L655-100Q741-118 784-159.50Q827-201 827-267Q827-373 733-426.50Q639-480 449-480Z"  horiz-adv-x="1200" vert-adv-y="2048"  />

      
      <glyph glyph-name="uni015C" unicode="&#x015C;" d="M551-20Q430-20 324.50-0.50Q219 19 129 58L155 260Q265 213 367.50 188.50Q470 164 567 164Q707 164 775 213Q843 262 843 362Q843 489 713 548L467 660Q322 726 244.50 819Q167 912 167 1050Q167 1236 279 1338Q391 1440 596 1440Q739 1440 849 1398Q959 1356 1061 1261L921 1119Q833 1191 756.50 1223.50Q680 1256 597 1256Q494 1256 437.50 1206.50Q381 1157 381 1060Q381 991 418 947.50Q455 904 527 870L735 772Q893 698 975 605Q1057 512 1057 366Q1057 173 931.50 76.50Q806-20 551-20M279 1580L539 1840L711 1840L971 1580L749 1580L572 1785L678 1785L501 1580L279 1580Z"  horiz-adv-x="1200" vert-adv-y="2048"  />

      
      <glyph glyph-name="uni0218" unicode="&#x0218;" d="M551-20Q430-20 324.50-0.50Q219 19 129 58L155 260Q265 213 367.50 188.50Q470 164 567 164Q707 164 775 213Q843 262 843 362Q843 489 713 548L467 660Q322 726 244.50 819Q167 912 167 1050Q167 1236 279 1338Q391 1440 596 1440Q739 1440 849 1398Q959 1356 1061 1261L921 1119Q833 1191 756.50 1223.50Q680 1256 597 1256Q494 1256 437.50 1206.50Q381 1157 381 1060Q381 991 418 947.50Q455 904 527 870L735 772Q893 698 975 605Q1057 512 1057 366Q1057 173 931.50 76.50Q806-20 551-20M425-480L502-140L724-140L607-480L425-480Z"  horiz-adv-x="1200" vert-adv-y="2048"  />

      
      <glyph glyph-name="uni1E62" unicode="&#x1E62;" d="M551-20Q430-20 324.50-0.50Q219 19 129 58L155 260Q265 213 367.50 188.50Q470 164 567 164Q707 164 775 213Q843 262 843 362Q843 489 713 548L467 660Q322 726 244.50 819Q167 912 167 1050Q167 1236 279 1338Q391 1440 596 1440Q739 1440 849 1398Q959 1356 1061 1261L921 1119Q833 1191 756.50 1223.50Q680 1256 597 1256Q494 1256 437.50 1206.50Q381 1157 381 1060Q381 991 418 947.50Q455 904 527 870L735 772Q893 698 975 605Q1057 512 1057 366Q1057 173 931.50 76.50Q806-20 551-20M610-420Q555-420 515.50-380.50Q476-341 476-286Q476-230 515.50-191Q555-152 610-152Q666-152 705-191Q744-230 744-286Q744-341 705-380.50Q666-420 610-420Z"  horiz-adv-x="1200" vert-adv-y="2048"  />

      
      <glyph glyph-name="uni1E9E" unicode="&#x1E9E;" d="M140 0L140 930Q140 1199 262.50 1319.50Q385 1440 656 1440Q784 1440 895.50 1398Q1007 1356 1104 1270L933 1130Q863 1190 794.50 1220Q726 1250 656 1250Q490 1251 415 1174.50Q340 1098 340 930L340 0L140 0M661-20Q541-20 459 3L485 190Q530 182 580.50 177Q631 172 677 172Q804 172 873.50 240Q943 308 943 432Q943 528 885.50 600.50Q828 673 721 704L546 754L879 1270L1105 1270L821 837L783 876Q962 845 1059.50 732.50Q1157 620 1157 446Q1157 224 1027 102Q897-20 661-20Z"  horiz-adv-x="1200" vert-adv-y="2048"  />

      
      <glyph glyph-name="uni018F" unicode="&#x018F;" d="M600-20Q76-20 76 680Q76 711 77 740.50Q78 770 80 798L289 782Q286 733 286 680Q286 164 600 164Q914 164 914 700Q914 1256 500 1256Q337 1256 196 1217L168 1394Q324 1440 500 1440Q1124 1440 1124 700Q1124-20 600-20M80 608L80 798L1021 798L1021 608L80 608Z"  horiz-adv-x="1200" vert-adv-y="2048"  />

      
      <glyph glyph-name="uni54" unicode="&#x54;" d="M500 0L500 1420L700 1420L700 0L500 0M80 1230L80 1420L1120 1420L1120 1230L80 1230Z"  horiz-adv-x="1200" vert-adv-y="2048"  />

      
      <glyph glyph-name="uni0166" unicode="&#x0166;" d="M192 587L192 777L1008 777L1008 587L192 587M500 0L500 1420L700 1420L700 0L500 0M80 1230L80 1420L1120 1420L1120 1230L80 1230Z"  horiz-adv-x="1200" vert-adv-y="2048"  />

      
      <glyph glyph-name="uni0164" unicode="&#x0164;" d="M500 0L500 1420L700 1420L700 0L500 0M80 1230L80 1420L1120 1420L1120 1230L80 1230M514 1580L254 1840L476 1840L610 1684L590 1684L724 1840L946 1840L686 1580L514 1580Z"  horiz-adv-x="1200" vert-adv-y="2048"  />

      
      <glyph glyph-name="uni0162" unicode="&#x0162;" d="M500 0L500 1420L700 1420L700 0L500 0M80 1230L80 1420L1120 1420L1120 1230L80 1230M434-480L434-330Q529-330 575.50-312Q622-294 622-258Q622-223 582-206.50Q542-190 460-190L529 6L665-5L640-100Q726-118 769-159.50Q812-201 812-267Q812-373 718-426.50Q624-480 434-480Z"  horiz-adv-x="1200" vert-adv-y="2048"  />

      
      <glyph glyph-name="uni021A" unicode="&#x021A;" d="M500 0L500 1420L700 1420L700 0L500 0M80 1230L80 1420L1120 1420L1120 1230L80 1230M410-480L487-140L709-140L592-480L410-480Z"  horiz-adv-x="1200" vert-adv-y="2048"  />

      
      <glyph glyph-name="uni023E" unicode="&#x023E;" d="M358-350L237-306L993 1716L1114 1672L358-350M500 0L500 1420L700 1420L700 0L500 0M80 1230L80 1420L1120 1420L1120 1230L80 1230Z"  horiz-adv-x="1200" vert-adv-y="2048"  />

      
      <glyph glyph-name="uni1E6E" unicode="&#x1E6E;" d="M500 0L500 1420L700 1420L700 0L500 0M80 1230L80 1420L1120 1420L1120 1230L80 1230M165-396L165-208L1025-208L1025-396L165-396Z"  horiz-adv-x="1200" vert-adv-y="2048"  />

      
      <glyph glyph-name="uni55" unicode="&#x55;" d="M596-20Q140-20 140 456L140 1420L340 1420L340 456Q340 314 402.50 242Q465 170 600 170Q860 170 860 456L860 1420L1060 1420L1060 456Q1060 218 942 99Q824-20 596-20Z"  horiz-adv-x="1200" vert-adv-y="2048"  />

      
      <glyph glyph-name="unida" unicode="&#xda;" d="M596-20Q140-20 140 456L140 1420L340 1420L340 456Q340 314 402.50 242Q465 170 600 170Q860 170 860 456L860 1420L1060 1420L1060 456Q1060 218 942 99Q824-20 596-20M469 1580L689 1830L971 1830L701 1580L469 1580Z"  horiz-adv-x="1200" vert-adv-y="2048"  />

      
      <glyph glyph-name="uni016C" unicode="&#x016C;" d="M596-20Q140-20 140 456L140 1420L340 1420L340 456Q340 314 402.50 242Q465 170 600 170Q860 170 860 456L860 1420L1060 1420L1060 456Q1060 218 942 99Q824-20 596-20M600 1570Q422 1570 324 1646Q226 1722 226 1860L401 1860Q401 1787 453.50 1746.50Q506 1706 600 1706Q695 1706 747 1746.50Q799 1787 799 1860L974 1860Q974 1722 876 1646Q778 1570 600 1570Z"  horiz-adv-x="1200" vert-adv-y="2048"  />

      
      <glyph glyph-name="unidb" unicode="&#xdb;" d="M596-20Q140-20 140 456L140 1420L340 1420L340 456Q340 314 402.50 242Q465 170 600 170Q860 170 860 456L860 1420L1060 1420L1060 456Q1060 218 942 99Q824-20 596-20M259 1580L519 1840L691 1840L951 1580L729 1580L552 1785L658 1785L481 1580L259 1580Z"  horiz-adv-x="1200" vert-adv-y="2048"  />

      
      <glyph glyph-name="unidc" unicode="&#xdc;" d="M596-20Q140-20 140 456L140 1420L340 1420L340 456Q340 314 402.50 242Q465 170 600 170Q860 170 860 456L860 1420L1060 1420L1060 456Q1060 218 942 99Q824-20 596-20M808 1580Q753 1580 713.50 1619.50Q674 1659 674 1714Q674 1770 713.50 1809Q753 1848 808 1848Q864 1848 903 1809Q942 1770 942 1714Q942 1659 903 1619.50Q864 1580 808 1580M392 1580Q337 1580 297.50 1619.50Q258 1659 258 1714Q258 1770 297.50 1809Q337 1848 392 1848Q448 1848 487 1809Q526 1770 526 1714Q526 1659 487 1619.50Q448 1580 392 1580Z"  horiz-adv-x="1200" vert-adv-y="2048"  />

      
      <glyph glyph-name="uni1EE4" unicode="&#x1EE4;" d="M596-20Q140-20 140 456L140 1420L340 1420L340 456Q340 314 402.50 242Q465 170 600 170Q860 170 860 456L860 1420L1060 1420L1060 456Q1060 218 942 99Q824-20 596-20M600-420Q545-420 505.50-380.50Q466-341 466-286Q466-230 505.50-191Q545-152 600-152Q656-152 695-191Q734-230 734-286Q734-341 695-380.50Q656-420 600-420Z"  horiz-adv-x="1200" vert-adv-y="2048"  />

      
      <glyph glyph-name="unid9" unicode="&#xd9;" d="M596-20Q140-20 140 456L140 1420L340 1420L340 456Q340 314 402.50 242Q465 170 600 170Q860 170 860 456L860 1420L1060 1420L1060 456Q1060 218 942 99Q824-20 596-20M509 1580L239 1830L521 1830L741 1580L509 1580Z"  horiz-adv-x="1200" vert-adv-y="2048"  />

      
      <glyph glyph-name="uni1EE6" unicode="&#x1EE6;" d="M596-20Q140-20 140 456L140 1420L340 1420L340 456Q340 314 402.50 242Q465 170 600 170Q860 170 860 456L860 1420L1060 1420L1060 456Q1060 218 942 99Q824-20 596-20M532 1529L532 1550Q532 1568 547 1585.50Q562 1603 598 1628Q637 1653 653 1669.50Q669 1686 669 1702Q669 1753 587 1753Q491 1753 423 1710L356 1829Q437 1904 608 1904Q835 1904 835 1741Q835 1681 808 1641.50Q781 1602 716 1564Q700 1555 693.50 1547Q687 1539 687 1529L532 1529Z"  horiz-adv-x="1200" vert-adv-y="2048"  />

      
      <glyph glyph-name="uni01AF" unicode="&#x01AF;" d="M911 1255L860 1420L921 1430Q1014 1445 1060 1500.50Q1106 1556 1106 1653L1298 1653Q1298 1484 1216.50 1388Q1135 1292 971 1265L911 1255M596-20Q140-20 140 456L140 1420L340 1420L340 456Q340 314 402.50 242Q465 170 600 170Q860 170 860 456L860 1420L1060 1420L1060 456Q1060 218 942 99Q824-20 596-20Z"  horiz-adv-x="1200" vert-adv-y="2048"  />

      
      <glyph glyph-name="uni1EE8" unicode="&#x1EE8;" d="M911 1255L860 1420L921 1430Q1014 1445 1060 1500.50Q1106 1556 1106 1653L1298 1653Q1298 1484 1216.50 1388Q1135 1292 971 1265L911 1255M596-20Q140-20 140 456L140 1420L340 1420L340 456Q340 314 402.50 242Q465 170 600 170Q860 170 860 456L860 1420L1060 1420L1060 456Q1060 218 942 99Q824-20 596-20M469 1580L689 1830L971 1830L701 1580L469 1580Z"  horiz-adv-x="1200" vert-adv-y="2048"  />

      
      <glyph glyph-name="uni1EF0" unicode="&#x1EF0;" d="M911 1255L860 1420L921 1430Q1014 1445 1060 1500.50Q1106 1556 1106 1653L1298 1653Q1298 1484 1216.50 1388Q1135 1292 971 1265L911 1255M596-20Q140-20 140 456L140 1420L340 1420L340 456Q340 314 402.50 242Q465 170 600 170Q860 170 860 456L860 1420L1060 1420L1060 456Q1060 218 942 99Q824-20 596-20M600-420Q545-420 505.50-380.50Q466-341 466-286Q466-230 505.50-191Q545-152 600-152Q656-152 695-191Q734-230 734-286Q734-341 695-380.50Q656-420 600-420Z"  horiz-adv-x="1200" vert-adv-y="2048"  />

      
      <glyph glyph-name="uni1EEA" unicode="&#x1EEA;" d="M911 1255L860 1420L921 1430Q1014 1445 1060 1500.50Q1106 1556 1106 1653L1298 1653Q1298 1484 1216.50 1388Q1135 1292 971 1265L911 1255M596-20Q140-20 140 456L140 1420L340 1420L340 456Q340 314 402.50 242Q465 170 600 170Q860 170 860 456L860 1420L1060 1420L1060 456Q1060 218 942 99Q824-20 596-20M509 1580L239 1830L521 1830L741 1580L509 1580Z"  horiz-adv-x="1200" vert-adv-y="2048"  />

      
      <glyph glyph-name="uni1EEC" unicode="&#x1EEC;" d="M911 1255L860 1420L921 1430Q1014 1445 1060 1500.50Q1106 1556 1106 1653L1298 1653Q1298 1484 1216.50 1388Q1135 1292 971 1265L911 1255M596-20Q140-20 140 456L140 1420L340 1420L340 456Q340 314 402.50 242Q465 170 600 170Q860 170 860 456L860 1420L1060 1420L1060 456Q1060 218 942 99Q824-20 596-20M532 1529L532 1550Q532 1568 547 1585.50Q562 1603 598 1628Q637 1653 653 1669.50Q669 1686 669 1702Q669 1753 587 1753Q491 1753 423 1710L356 1829Q437 1904 608 1904Q835 1904 835 1741Q835 1681 808 1641.50Q781 1602 716 1564Q700 1555 693.50 1547Q687 1539 687 1529L532 1529Z"  horiz-adv-x="1200" vert-adv-y="2048"  />

      
      <glyph glyph-name="uni1EEE" unicode="&#x1EEE;" d="M911 1255L860 1420L921 1430Q1014 1445 1060 1500.50Q1106 1556 1106 1653L1298 1653Q1298 1484 1216.50 1388Q1135 1292 971 1265L911 1255M596-20Q140-20 140 456L140 1420L340 1420L340 456Q340 314 402.50 242Q465 170 600 170Q860 170 860 456L860 1420L1060 1420L1060 456Q1060 218 942 99Q824-20 596-20M225 1566L225 1616Q225 1741 277.50 1803.50Q330 1866 435 1866Q476 1866 520.50 1853.50Q565 1841 623 1817Q682 1793 713 1779.50Q744 1766 769 1766Q823 1766 823 1830L823 1890L995 1890L995 1840Q995 1720 948 1660Q901 1600 807 1600Q773 1600 726 1614Q679 1628 614 1655Q571 1673 535 1686.50Q499 1700 473 1700Q399 1700 399 1626L399 1566L225 1566Z"  horiz-adv-x="1200" vert-adv-y="2048"  />

      
      <glyph glyph-name="uni0170" unicode="&#x0170;" d="M596-20Q140-20 140 456L140 1420L340 1420L340 456Q340 314 402.50 242Q465 170 600 170Q860 170 860 456L860 1420L1060 1420L1060 456Q1060 218 942 99Q824-20 596-20M659 1580L819 1830L1101 1830L901 1580L659 1580M249 1580L409 1830L691 1830L491 1580L249 1580Z"  horiz-adv-x="1200" vert-adv-y="2048"  />

      
      <glyph glyph-name="uni016A" unicode="&#x016A;" d="M596-20Q140-20 140 456L140 1420L340 1420L340 456Q340 314 402.50 242Q465 170 600 170Q860 170 860 456L860 1420L1060 1420L1060 456Q1060 218 942 99Q824-20 596-20M213 1580L213 1768L987 1768L987 1580L213 1580Z"  horiz-adv-x="1200" vert-adv-y="2048"  />

      
      <glyph glyph-name="uni0172" unicode="&#x0172;" d="M668-424Q553-424 490.50-373.50Q428-323 428-232Q428-78 542-40L542 30L762 40L806 13Q754-4 701.50-23.50Q649-43 613.50-76.50Q578-110 578-168Q578-194 601-225Q624-256 694-256Q711-256 731-253.50Q751-251 776-245L758-415Q733-419 710.50-421.50Q688-424 668-424M596-20Q140-20 140 456L140 1420L340 1420L340 456Q340 314 402.50 242Q465 170 600 170Q860 170 860 456L860 1420L1060 1420L1060 456Q1060 218 942 99Q824-20 596-20Z"  horiz-adv-x="1200" vert-adv-y="2048"  />

      
      <glyph glyph-name="uni01B1" unicode="&#x01B1;" d="M350 1293L530 1234Q408 1188 347 1039.50Q286 891 286 640Q286 413 368 288.50Q450 164 600 164Q750 164 832 288.50Q914 413 914 640Q914 896 859 1044.50Q804 1193 694 1234L874 1285L874 1214Q958 1188 1013.50 1115Q1069 1042 1096.50 923.50Q1124 805 1124 640Q1124 325 987 152.50Q850-20 600-20Q350-20 213 152.50Q76 325 76 640Q76 803 106.50 921Q137 1039 198 1113Q259 1187 350 1217L350 1293M104 1420L530 1420L530 1234L104 1234L104 1420M694 1420L1096 1420L1096 1234L694 1234L694 1420Z"  horiz-adv-x="1200" vert-adv-y="2048"  />

      
      <glyph glyph-name="uni016E" unicode="&#x016E;" d="M596-20Q140-20 140 456L140 1420L340 1420L340 456Q340 314 402.50 242Q465 170 600 170Q860 170 860 456L860 1420L1060 1420L1060 456Q1060 218 942 99Q824-20 596-20M600 1488Q487 1488 424.50 1542Q362 1596 362 1694Q362 1792 424.50 1846Q487 1900 600 1900Q713 1900 775.50 1846Q838 1792 838 1694Q838 1596 775.50 1542Q713 1488 600 1488M600 1604Q647 1604 671.50 1627.50Q696 1651 696 1694Q696 1738 671.50 1761.50Q647 1785 600 1785Q554 1785 529 1761.50Q504 1738 504 1694Q504 1651 529 1627.50Q554 1604 600 1604Z"  horiz-adv-x="1200" vert-adv-y="2048"  />

      
      <glyph glyph-name="uni0168" unicode="&#x0168;" d="M596-20Q140-20 140 456L140 1420L340 1420L340 456Q340 314 402.50 242Q465 170 600 170Q860 170 860 456L860 1420L1060 1420L1060 456Q1060 218 942 99Q824-20 596-20M225 1566L225 1616Q225 1741 277.50 1803.50Q330 1866 435 1866Q476 1866 520.50 1853.50Q565 1841 623 1817Q682 1793 713 1779.50Q744 1766 769 1766Q823 1766 823 1830L823 1890L995 1890L995 1840Q995 1720 948 1660Q901 1600 807 1600Q773 1600 726 1614Q679 1628 614 1655Q571 1673 535 1686.50Q499 1700 473 1700Q399 1700 399 1626L399 1566L225 1566Z"  horiz-adv-x="1200" vert-adv-y="2048"  />

      
      <glyph glyph-name="uni56" unicode="&#x56;" d="M445 0L45 1420L259 1420L591 170L609 170L941 1420L1155 1420L755 0L445 0Z"  horiz-adv-x="1200" vert-adv-y="2048"  />

      
      <glyph glyph-name="uni0194" unicode="&#x0194;" d="M600-462L600-282Q657-282 686.50-250.50Q716-219 716-162Q716-123 684.50-74.50Q653-26 566 66L711 111Q829 23 872.50-53.50Q916-130 916-206Q916-329 833-395.50Q750-462 600-462M600-462Q450-462 367-395.50Q284-329 284-206Q284-130 327.50-53.50Q371 23 489 111L634 66Q547-26 515.50-74.50Q484-123 484-162Q484-219 513.50-250.50Q543-282 600-282L600-462M445 0L45 1420L259 1420L591 170L609 170L941 1420L1155 1420L755 0L599 56L445 0Z"  horiz-adv-x="1200" vert-adv-y="2048"  />

      
      <glyph glyph-name="uni01B2" unicode="&#x01B2;" d="M628 1420L756 1420Q924 1420 992 1353Q1060 1286 1060 1120L1060 456Q1060 218 942 99Q824-20 596-20Q140-20 140 456L140 1420L340 1420L340 456Q340 314 402.50 242Q465 170 600 170Q860 170 860 456L860 1070Q860 1159 828 1194.50Q796 1230 716 1230L628 1230L628 1420Z"  horiz-adv-x="1200" vert-adv-y="2048"  />

      
      <glyph glyph-name="uni0245" unicode="&#x0245;" d="M45 0L455 1420L745 1420L1155 0L935 0L609 1248L591 1248L265 0L45 0Z"  horiz-adv-x="1200" vert-adv-y="2048"  />

      
      <glyph glyph-name="uni57" unicode="&#x57;" d="M180 0L20 1420L230 1420L350 160L370 160L501 1060L701 1060L634 862L594 862L489 0L180 0M711 0L606 862L566 862L501 1060L701 1060L830 160L850 160L970 1420L1180 1420L1020 0L711 0Z"  horiz-adv-x="1200" vert-adv-y="2048"  />

      
      <glyph glyph-name="uni1E82" unicode="&#x1E82;" d="M180 0L20 1420L230 1420L350 160L370 160L501 1060L701 1060L634 862L594 862L489 0L180 0M711 0L606 862L566 862L501 1060L701 1060L830 160L850 160L970 1420L1180 1420L1020 0L711 0M469 1580L689 1830L971 1830L701 1580L469 1580Z"  horiz-adv-x="1200" vert-adv-y="2048"  />

      
      <glyph glyph-name="uni0174" unicode="&#x0174;" d="M180 0L20 1420L230 1420L350 160L370 160L501 1060L701 1060L634 862L594 862L489 0L180 0M711 0L606 862L566 862L501 1060L701 1060L830 160L850 160L970 1420L1180 1420L1020 0L711 0M259 1580L519 1840L691 1840L951 1580L729 1580L552 1785L658 1785L481 1580L259 1580Z"  horiz-adv-x="1200" vert-adv-y="2048"  />

      
      <glyph glyph-name="uni1E84" unicode="&#x1E84;" d="M180 0L20 1420L230 1420L350 160L370 160L501 1060L701 1060L634 862L594 862L489 0L180 0M711 0L606 862L566 862L501 1060L701 1060L830 160L850 160L970 1420L1180 1420L1020 0L711 0M808 1580Q753 1580 713.50 1619.50Q674 1659 674 1714Q674 1770 713.50 1809Q753 1848 808 1848Q864 1848 903 1809Q942 1770 942 1714Q942 1659 903 1619.50Q864 1580 808 1580M392 1580Q337 1580 297.50 1619.50Q258 1659 258 1714Q258 1770 297.50 1809Q337 1848 392 1848Q448 1848 487 1809Q526 1770 526 1714Q526 1659 487 1619.50Q448 1580 392 1580Z"  horiz-adv-x="1200" vert-adv-y="2048"  />

      
      <glyph glyph-name="uni1E80" unicode="&#x1E80;" d="M180 0L20 1420L230 1420L350 160L370 160L501 1060L701 1060L634 862L594 862L489 0L180 0M711 0L606 862L566 862L501 1060L701 1060L830 160L850 160L970 1420L1180 1420L1020 0L711 0M509 1580L239 1830L521 1830L741 1580L509 1580Z"  horiz-adv-x="1200" vert-adv-y="2048"  />

      
      <glyph glyph-name="uni58" unicode="&#x58;" d="M905 0L541 636L65 1420L295 1420L673 746L1135 0L905 0M65 0L527 746L905 1420L1135 1420L659 636L295 0L65 0Z"  horiz-adv-x="1200" vert-adv-y="2048"  />

      
      <glyph glyph-name="uni59" unicode="&#x59;" d="M515 474L25 1420L245 1420L591 710L609 710L955 1420L1175 1420L685 474L515 474M500 0L500 700L700 700L700 0L500 0Z"  horiz-adv-x="1200" vert-adv-y="2048"  />

      
      <glyph glyph-name="unidd" unicode="&#xdd;" d="M515 474L25 1420L245 1420L591 710L609 710L955 1420L1175 1420L685 474L515 474M500 0L500 700L700 700L700 0L500 0M469 1580L689 1830L971 1830L701 1580L469 1580Z"  horiz-adv-x="1200" vert-adv-y="2048"  />

      
      <glyph glyph-name="uni0176" unicode="&#x0176;" d="M515 474L25 1420L245 1420L591 710L609 710L955 1420L1175 1420L685 474L515 474M500 0L500 700L700 700L700 0L500 0M259 1580L519 1840L691 1840L951 1580L729 1580L552 1785L658 1785L481 1580L259 1580Z"  horiz-adv-x="1200" vert-adv-y="2048"  />

      
      <glyph glyph-name="uni0178" unicode="&#x0178;" d="M515 474L25 1420L245 1420L591 710L609 710L955 1420L1175 1420L685 474L515 474M500 0L500 700L700 700L700 0L500 0M808 1580Q753 1580 713.50 1619.50Q674 1659 674 1714Q674 1770 713.50 1809Q753 1848 808 1848Q864 1848 903 1809Q942 1770 942 1714Q942 1659 903 1619.50Q864 1580 808 1580M392 1580Q337 1580 297.50 1619.50Q258 1659 258 1714Q258 1770 297.50 1809Q337 1848 392 1848Q448 1848 487 1809Q526 1770 526 1714Q526 1659 487 1619.50Q448 1580 392 1580Z"  horiz-adv-x="1200" vert-adv-y="2048"  />

      
      <glyph glyph-name="uni1EF4" unicode="&#x1EF4;" d="M515 474L25 1420L245 1420L591 710L609 710L955 1420L1175 1420L685 474L515 474M500 0L500 700L700 700L700 0L500 0M600-420Q545-420 505.50-380.50Q466-341 466-286Q466-230 505.50-191Q545-152 600-152Q656-152 695-191Q734-230 734-286Q734-341 695-380.50Q656-420 600-420Z"  horiz-adv-x="1200" vert-adv-y="2048"  />

      
      <glyph glyph-name="uni1EF2" unicode="&#x1EF2;" d="M515 474L25 1420L245 1420L591 710L609 710L955 1420L1175 1420L685 474L515 474M500 0L500 700L700 700L700 0L500 0M509 1580L239 1830L521 1830L741 1580L509 1580Z"  horiz-adv-x="1200" vert-adv-y="2048"  />

      
      <glyph glyph-name="uni1EF6" unicode="&#x1EF6;" d="M515 474L25 1420L245 1420L591 710L609 710L955 1420L1175 1420L685 474L515 474M500 0L500 700L700 700L700 0L500 0M532 1529L532 1550Q532 1568 547 1585.50Q562 1603 598 1628Q637 1653 653 1669.50Q669 1686 669 1702Q669 1753 587 1753Q491 1753 423 1710L356 1829Q437 1904 608 1904Q835 1904 835 1741Q835 1681 808 1641.50Q781 1602 716 1564Q700 1555 693.50 1547Q687 1539 687 1529L532 1529Z"  horiz-adv-x="1200" vert-adv-y="2048"  />

      
      <glyph glyph-name="uni0232" unicode="&#x0232;" d="M515 474L25 1420L245 1420L591 710L609 710L955 1420L1175 1420L685 474L515 474M500 0L500 700L700 700L700 0L500 0M213 1580L213 1768L987 1768L987 1580L213 1580Z"  horiz-adv-x="1200" vert-adv-y="2048"  />

      
      <glyph glyph-name="uni1EF8" unicode="&#x1EF8;" d="M515 474L25 1420L245 1420L591 710L609 710L955 1420L1175 1420L685 474L515 474M500 0L500 700L700 700L700 0L500 0M225 1566L225 1616Q225 1741 277.50 1803.50Q330 1866 435 1866Q476 1866 520.50 1853.50Q565 1841 623 1817Q682 1793 713 1779.50Q744 1766 769 1766Q823 1766 823 1830L823 1890L995 1890L995 1840Q995 1720 948 1660Q901 1600 807 1600Q773 1600 726 1614Q679 1628 614 1655Q571 1673 535 1686.50Q499 1700 473 1700Q399 1700 399 1626L399 1566L225 1566Z"  horiz-adv-x="1200" vert-adv-y="2048"  />

      
      <glyph glyph-name="uni5a" unicode="&#x5a;" d="M302 68L150 190L898 1362L1050 1230L302 68M150 0L150 190L1070 190L1070 0L150 0M150 1230L150 1420L1050 1420L1050 1230L150 1230Z"  horiz-adv-x="1200" vert-adv-y="2048"  />

      
      <glyph glyph-name="uni0179" unicode="&#x0179;" d="M302 68L150 190L898 1362L1050 1230L302 68M150 0L150 190L1070 190L1070 0L150 0M150 1230L150 1420L1050 1420L1050 1230L150 1230M469 1580L689 1830L971 1830L701 1580L469 1580Z"  horiz-adv-x="1200" vert-adv-y="2048"  />

      
      <glyph glyph-name="uni017D" unicode="&#x017D;" d="M302 68L150 190L898 1362L1050 1230L302 68M150 0L150 190L1070 190L1070 0L150 0M150 1230L150 1420L1050 1420L1050 1230L150 1230M514 1580L254 1840L476 1840L610 1684L590 1684L724 1840L946 1840L686 1580L514 1580Z"  horiz-adv-x="1200" vert-adv-y="2048"  />

      
      <glyph glyph-name="uni017B" unicode="&#x017B;" d="M302 68L150 190L898 1362L1050 1230L302 68M150 0L150 190L1070 190L1070 0L150 0M150 1230L150 1420L1050 1420L1050 1230L150 1230M600 1580Q545 1580 505.50 1619.50Q466 1659 466 1714Q466 1770 505.50 1809Q545 1848 600 1848Q656 1848 695 1809Q734 1770 734 1714Q734 1659 695 1619.50Q656 1580 600 1580Z"  horiz-adv-x="1200" vert-adv-y="2048"  />

      
      <glyph glyph-name="uni1D00" unicode="&#x1D00;" d="M46 0L469 1079L730 1079L1153 0L941 0L608 885L591 885L258 0L46 0M235 229L235 393L955 393L955 229L235 229Z"  horiz-adv-x="1200" vert-adv-y="2048"  />

      
      <glyph glyph-name="uni0262" unicode="&#x0262;" d="M682-15Q384-15 234.50 124Q85 263 85 541Q85 804 250.50 949Q416 1094 714 1094Q853 1094 961.50 1068.50Q1070 1043 1122 995L1021 825Q963 862 889.50 883Q816 904 726 904Q527 904 416 811.50Q305 719 305 549Q305 362 406 268.50Q507 175 706 175Q815 175 897 189Q979 203 1032 213L1112 30Q1066 20 949.50 2.50Q833-15 682-15M900 30L900 570L1112 570L1112 30L900 30M650 380L650 570L1106 570L1106 380L650 380Z"  horiz-adv-x="1200" vert-adv-y="2048"  />

      
      <glyph glyph-name="uni026A" unicode="&#x026A;" d="M494 0L494 1060L706 1060L706 0L494 0M168 0L168 174L1032 174L1032 0L168 0M168 886L168 1060L1032 1060L1032 886L168 886Z"  horiz-adv-x="1200" vert-adv-y="2048"  />

      
      <glyph glyph-name="uni029F" unicode="&#x029F;" d="M159 0L159 1079L371 1079L371 0L159 0M159 0L159 174L1102 174L1102 0L159 0Z"  horiz-adv-x="1200" vert-adv-y="2048"  />

      
      <glyph glyph-name="uni61" unicode="&#x61;" d="M818-10L804 304L776 392L776 666Q776 772 701.50 821.50Q627 871 480 875L226 882L246 1070L460 1067Q723 1063 850.50 953.50Q978 844 978 634L978 192L1158 170L1158 0L818-10M444-20Q278-20 187 60Q96 140 96 286Q96 454 221.50 544Q347 634 576 634Q671 634 745.50 622.50Q820 611 878 588L834 444Q767 459 703 461.50Q639 464 572 464Q296 464 296 296Q296 226 343.50 188Q391 150 478 150Q577 150 643.50 184Q710 218 743 271Q776 324 776 380L776 496L838 224L754 224L788 256Q788 164 745.50 102.50Q703 41 626 10.50Q549-20 444-20Z"  horiz-adv-x="1200" vert-adv-y="2048"  />

      
      <glyph glyph-name="unie1" unicode="&#xe1;" d="M818-10L804 304L776 392L776 666Q776 772 701.50 821.50Q627 871 480 875L226 882L246 1070L460 1067Q723 1063 850.50 953.50Q978 844 978 634L978 192L1158 170L1158 0L818-10M444-20Q278-20 187 60Q96 140 96 286Q96 454 221.50 544Q347 634 576 634Q671 634 745.50 622.50Q820 611 878 588L834 444Q767 459 703 461.50Q639 464 572 464Q296 464 296 296Q296 226 343.50 188Q391 150 478 150Q577 150 643.50 184Q710 218 743 271Q776 324 776 380L776 496L838 224L754 224L788 256Q788 164 745.50 102.50Q703 41 626 10.50Q549-20 444-20M479 1248L649 1628L861 1628L671 1248L479 1248Z"  horiz-adv-x="1200" vert-adv-y="2048"  />

      
      <glyph glyph-name="uni0103" unicode="&#x0103;" d="M818-10L804 304L776 392L776 666Q776 772 701.50 821.50Q627 871 480 875L226 882L246 1070L460 1067Q723 1063 850.50 953.50Q978 844 978 634L978 192L1158 170L1158 0L818-10M444-20Q278-20 187 60Q96 140 96 286Q96 454 221.50 544Q347 634 576 634Q671 634 745.50 622.50Q820 611 878 588L834 444Q767 459 703 461.50Q639 464 572 464Q296 464 296 296Q296 226 343.50 188Q391 150 478 150Q577 150 643.50 184Q710 218 743 271Q776 324 776 380L776 496L838 224L754 224L788 256Q788 164 745.50 102.50Q703 41 626 10.50Q549-20 444-20M580 1238Q414 1238 322.50 1322Q231 1406 231 1560L231 1603L406 1603L406 1560Q406 1471 451 1422.50Q496 1374 580 1374Q664 1374 709 1422.50Q754 1471 754 1560L754 1603L929 1603L929 1560Q929 1406 838 1322Q747 1238 580 1238Z"  horiz-adv-x="1200" vert-adv-y="2048"  />

      
      <glyph glyph-name="uni1EAF" unicode="&#x1EAF;" d="M818-10L804 304L776 392L776 666Q776 772 701.50 821.50Q627 871 480 875L226 882L246 1070L460 1067Q723 1063 850.50 953.50Q978 844 978 634L978 192L1158 170L1158 0L818-10M444-20Q278-20 187 60Q96 140 96 286Q96 454 221.50 544Q347 634 576 634Q671 634 745.50 622.50Q820 611 878 588L834 444Q767 459 703 461.50Q639 464 572 464Q296 464 296 296Q296 226 343.50 188Q391 150 478 150Q577 150 643.50 184Q710 218 743 271Q776 324 776 380L776 496L838 224L754 224L788 256Q788 164 745.50 102.50Q703 41 626 10.50Q549-20 444-20M580 1238Q414 1238 322.50 1322Q231 1406 231 1560L231 1603L406 1603L406 1560Q406 1471 451 1422.50Q496 1374 580 1374Q664 1374 709 1422.50Q754 1471 754 1560L754 1603L929 1603L929 1560Q929 1406 838 1322Q747 1238 580 1238M479 1728L649 2108L861 2108L671 1728L479 1728Z"  horiz-adv-x="1200" vert-adv-y="2048"  />

      
      <glyph glyph-name="uni1EB7" unicode="&#x1EB7;" d="M818-10L804 304L776 392L776 666Q776 772 701.50 821.50Q627 871 480 875L226 882L246 1070L460 1067Q723 1063 850.50 953.50Q978 844 978 634L978 192L1158 170L1158 0L818-10M444-20Q278-20 187 60Q96 140 96 286Q96 454 221.50 544Q347 634 576 634Q671 634 745.50 622.50Q820 611 878 588L834 444Q767 459 703 461.50Q639 464 572 464Q296 464 296 296Q296 226 343.50 188Q391 150 478 150Q577 150 643.50 184Q710 218 743 271Q776 324 776 380L776 496L838 224L754 224L788 256Q788 164 745.50 102.50Q703 41 626 10.50Q549-20 444-20M600-420Q545-420 505.50-380.50Q466-341 466-286Q466-230 505.50-191Q545-152 600-152Q656-152 695-191Q734-230 734-286Q734-341 695-380.50Q656-420 600-420M580 1238Q414 1238 322.50 1322Q231 1406 231 1560L231 1603L406 1603L406 1560Q406 1471 451 1422.50Q496 1374 580 1374Q664 1374 709 1422.50Q754 1471 754 1560L754 1603L929 1603L929 1560Q929 1406 838 1322Q747 1238 580 1238Z"  horiz-adv-x="1200" vert-adv-y="2048"  />

      
      <glyph glyph-name="uni1EB1" unicode="&#x1EB1;" d="M818-10L804 304L776 392L776 666Q776 772 701.50 821.50Q627 871 480 875L226 882L246 1070L460 1067Q723 1063 850.50 953.50Q978 844 978 634L978 192L1158 170L1158 0L818-10M444-20Q278-20 187 60Q96 140 96 286Q96 454 221.50 544Q347 634 576 634Q671 634 745.50 622.50Q820 611 878 588L834 444Q767 459 703 461.50Q639 464 572 464Q296 464 296 296Q296 226 343.50 188Q391 150 478 150Q577 150 643.50 184Q710 218 743 271Q776 324 776 380L776 496L838 224L754 224L788 256Q788 164 745.50 102.50Q703 41 626 10.50Q549-20 444-20M580 1238Q414 1238 322.50 1322Q231 1406 231 1560L231 1603L406 1603L406 1560Q406 1471 451 1422.50Q496 1374 580 1374Q664 1374 709 1422.50Q754 1471 754 1560L754 1603L929 1603L929 1560Q929 1406 838 1322Q747 1238 580 1238M504 1728L314 2108L526 2108L696 1728L504 1728Z"  horiz-adv-x="1200" vert-adv-y="2048"  />

      
      <glyph glyph-name="uni1EB3" unicode="&#x1EB3;" d="M818-10L804 304L776 392L776 666Q776 772 701.50 821.50Q627 871 480 875L226 882L246 1070L460 1067Q723 1063 850.50 953.50Q978 844 978 634L978 192L1158 170L1158 0L818-10M444-20Q278-20 187 60Q96 140 96 286Q96 454 221.50 544Q347 634 576 634Q671 634 745.50 622.50Q820 611 878 588L834 444Q767 459 703 461.50Q639 464 572 464Q296 464 296 296Q296 226 343.50 188Q391 150 478 150Q577 150 643.50 184Q710 218 743 271Q776 324 776 380L776 496L838 224L754 224L788 256Q788 164 745.50 102.50Q703 41 626 10.50Q549-20 444-20M580 1238Q414 1238 322.50 1322Q231 1406 231 1560L231 1603L406 1603L406 1560Q406 1471 451 1422.50Q496 1374 580 1374Q664 1374 709 1422.50Q754 1471 754 1560L754 1603L929 1603L929 1560Q929 1406 838 1322Q747 1238 580 1238M502 1728L502 1764Q502 1803 518 1830.50Q534 1858 555.50 1879Q577 1900 593 1920Q609 1940 609 1965Q609 1991 592 2006Q575 2021 547 2021L568 2172Q662 2172 718.50 2119Q775 2066 775 1979Q775 1931 757 1901.50Q739 1872 716 1849.50Q693 1827 675 1801.50Q657 1776 657 1737L657 1728L502 1728M423 1978L356 2097Q387 2131 445 2151.50Q503 2172 568 2172L547 2021Q474 2021 423 1978Z"  horiz-adv-x="1200" vert-adv-y="2048"  />

      
      <glyph glyph-name="uni1EB5" unicode="&#x1EB5;" d="M818-10L804 304L776 392L776 666Q776 772 701.50 821.50Q627 871 480 875L226 882L246 1070L460 1067Q723 1063 850.50 953.50Q978 844 978 634L978 192L1158 170L1158 0L818-10M444-20Q278-20 187 60Q96 140 96 286Q96 454 221.50 544Q347 634 576 634Q671 634 745.50 622.50Q820 611 878 588L834 444Q767 459 703 461.50Q639 464 572 464Q296 464 296 296Q296 226 343.50 188Q391 150 478 150Q577 150 643.50 184Q710 218 743 271Q776 324 776 380L776 496L838 224L754 224L788 256Q788 164 745.50 102.50Q703 41 626 10.50Q549-20 444-20M580 1238Q414 1238 322.50 1322Q231 1406 231 1560L231 1603L406 1603L406 1560Q406 1471 451 1422.50Q496 1374 580 1374Q664 1374 709 1422.50Q754 1471 754 1560L754 1603L929 1603L929 1560Q929 1406 838 1322Q747 1238 580 1238M230 1736L230 1776Q230 2026 440 2026Q480 2026 515 2013.50Q550 2001 588 1982Q638 1957 673.50 1941.50Q709 1926 734 1926Q788 1926 788 1990L788 2080L960 2080L960 2000Q960 1880 913 1820Q866 1760 772 1760Q744 1760 703 1772Q662 1784 609 1810Q576 1827 543 1843.50Q510 1860 478 1860Q441 1860 422.50 1842Q404 1824 404 1786L404 1736L230 1736Z"  horiz-adv-x="1200" vert-adv-y="2048"  />

      
      <glyph glyph-name="uni01CE" unicode="&#x01CE;" d="M818-10L804 304L776 392L776 666Q776 772 701.50 821.50Q627 871 480 875L226 882L246 1070L460 1067Q723 1063 850.50 953.50Q978 844 978 634L978 192L1158 170L1158 0L818-10M444-20Q278-20 187 60Q96 140 96 286Q96 454 221.50 544Q347 634 576 634Q671 634 745.50 622.50Q820 611 878 588L834 444Q767 459 703 461.50Q639 464 572 464Q296 464 296 296Q296 226 343.50 188Q391 150 478 150Q577 150 643.50 184Q710 218 743 271Q776 324 776 380L776 496L838 224L754 224L788 256Q788 164 745.50 102.50Q703 41 626 10.50Q549-20 444-20M494 1210L254 1590L466 1590L590 1344L570 1344L694 1590L906 1590L666 1210L494 1210Z"  horiz-adv-x="1200" vert-adv-y="2048"  />

      
      <glyph glyph-name="unie2" unicode="&#xe2;" d="M818-10L804 304L776 392L776 666Q776 772 701.50 821.50Q627 871 480 875L226 882L246 1070L460 1067Q723 1063 850.50 953.50Q978 844 978 634L978 192L1158 170L1158 0L818-10M444-20Q278-20 187 60Q96 140 96 286Q96 454 221.50 544Q347 634 576 634Q671 634 745.50 622.50Q820 611 878 588L834 444Q767 459 703 461.50Q639 464 572 464Q296 464 296 296Q296 226 343.50 188Q391 150 478 150Q577 150 643.50 184Q710 218 743 271Q776 324 776 380L776 496L838 224L754 224L788 256Q788 164 745.50 102.50Q703 41 626 10.50Q549-20 444-20M254 1248L494 1628L666 1628L906 1248L694 1248L570 1494L590 1494L466 1248L254 1248Z"  horiz-adv-x="1200" vert-adv-y="2048"  />

      
      <glyph glyph-name="uni1EA5" unicode="&#x1EA5;" d="M818-10L804 304L776 392L776 666Q776 772 701.50 821.50Q627 871 480 875L226 882L246 1070L460 1067Q723 1063 850.50 953.50Q978 844 978 634L978 192L1158 170L1158 0L818-10M444-20Q278-20 187 60Q96 140 96 286Q96 454 221.50 544Q347 634 576 634Q671 634 745.50 622.50Q820 611 878 588L834 444Q767 459 703 461.50Q639 464 572 464Q296 464 296 296Q296 226 343.50 188Q391 150 478 150Q577 150 643.50 184Q710 218 743 271Q776 324 776 380L776 496L838 224L754 224L788 256Q788 164 745.50 102.50Q703 41 626 10.50Q549-20 444-20M254 1248L494 1628L666 1628L906 1248L694 1248L570 1494L590 1494L466 1248L254 1248M836 1588L1006 1968L1218 1968L1028 1588L836 1588Z"  horiz-adv-x="1200" vert-adv-y="2048"  />

      
      <glyph glyph-name="uni1EAD" unicode="&#x1EAD;" d="M818-10L804 304L776 392L776 666Q776 772 701.50 821.50Q627 871 480 875L226 882L246 1070L460 1067Q723 1063 850.50 953.50Q978 844 978 634L978 192L1158 170L1158 0L818-10M444-20Q278-20 187 60Q96 140 96 286Q96 454 221.50 544Q347 634 576 634Q671 634 745.50 622.50Q820 611 878 588L834 444Q767 459 703 461.50Q639 464 572 464Q296 464 296 296Q296 226 343.50 188Q391 150 478 150Q577 150 643.50 184Q710 218 743 271Q776 324 776 380L776 496L838 224L754 224L788 256Q788 164 745.50 102.50Q703 41 626 10.50Q549-20 444-20M600-420Q545-420 505.50-380.50Q466-341 466-286Q466-230 505.50-191Q545-152 600-152Q656-152 695-191Q734-230 734-286Q734-341 695-380.50Q656-420 600-420M254 1248L494 1628L666 1628L906 1248L694 1248L570 1494L590 1494L466 1248L254 1248Z"  horiz-adv-x="1200" vert-adv-y="2048"  />

      
      <glyph glyph-name="uni1EA7" unicode="&#x1EA7;" d="M818-10L804 304L776 392L776 666Q776 772 701.50 821.50Q627 871 480 875L226 882L246 1070L460 1067Q723 1063 850.50 953.50Q978 844 978 634L978 192L1158 170L1158 0L818-10M444-20Q278-20 187 60Q96 140 96 286Q96 454 221.50 544Q347 634 576 634Q671 634 745.50 622.50Q820 611 878 588L834 444Q767 459 703 461.50Q639 464 572 464Q296 464 296 296Q296 226 343.50 188Q391 150 478 150Q577 150 643.50 184Q710 218 743 271Q776 324 776 380L776 496L838 224L754 224L788 256Q788 164 745.50 102.50Q703 41 626 10.50Q549-20 444-20M254 1248L494 1628L666 1628L906 1248L694 1248L570 1494L590 1494L466 1248L254 1248M861 1588L671 1968L883 1968L1053 1588L861 1588Z"  horiz-adv-x="1200" vert-adv-y="2048"  />

      
      </font>
</defs>
</svg>
